<?xml version="1.0" encoding="utf-8"?>
<!-- Generator: Adobe Illustrator 27.8.0, SVG Export Plug-In . SVG Version: 6.00 Build 0)  -->
<svg version="1.1" id="Layer_1" xmlns="http://www.w3.org/2000/svg" xmlns:xlink="http://www.w3.org/1999/xlink" x="0px" y="0px"
	 viewBox="0 0 6785.9 1129" style="enable-background:new 0 0 6785.9 1129;" xml:space="preserve">
<style type="text/css">
	.st0{fill:#FFFFFF;}
</style>
<path class="st0" d="M1829.5,29.6v126.3h-301.8v738.6h-153.5V156.1h-301.8V29.6H1829.5z"/>
<path class="st0" d="M2019.2,29.6v320.7h2.6C2067.3,292,2130.2,263,2210,263c75.7,0,134.4,21.5,176.1,64.4
	c41.7,42.8,62.5,106.1,62.5,189.5v377.7h-147.1V528.9c0-102.9-44.4-154.2-132.9-154.2c-43.8,0-79.8,15.3-107.6,46.2
	c-27.9,30.8-41.9,74.6-41.9,131.2v342.6h-147V29.6H2019.2z"/>
<path class="st0" d="M2656.2,29.6V162h-147V29.6H2656.2z M2656.2,277.5v617h-147v-617H2656.2z"/>
<path class="st0" d="M3068.1,263c75.7,0,134.4,21.5,176.1,64.4c41.7,42.8,62.5,106.1,62.5,189.5v377.7h-147.1V528.9
	c0-102.9-44.3-154.2-132.9-154.2c-43.8,0-79.9,15.3-107.6,46.2c-27.9,30.8-41.9,74.6-41.9,131.2v342.6h-147V277.5h139.3v80.2h2.6
	C2918.6,294.5,2983.9,263,3068.1,263z"/>
<path class="st0" d="M3656.1,559.3l316,335.2h-185.7l-276.5-298.8h-2.6v298.8h-147V29.6h147V530h2.6l238.6-252.7H3920l-263.7,281.8
	L3656.1,559.3z"/>
<path class="st0" d="M4795.3,29.6v864.9h-153.5V508.3h-423v386.2H4064V29.6h154.8v352.2h423V29.6H4795.3z"/>
<path class="st0" d="M5100.9,909.1c-75.7,0-134.4-21.5-176.1-64.4c-41.7-42.8-62.5-106.1-62.5-189.5V277.5h147.1v365.6
	c0,102.9,44.4,154.2,132.9,154.2c43.8,0,79.7-15.3,107.6-46.2c27.9-30.8,41.9-74.6,41.9-131.2V277.5h147v617h-139.3v-80.2h-2.7
	C5250.4,877.5,5185.1,909.1,5100.9,909.1z"/>
<path class="st0" d="M5770.8,260.5c79.1,0,142.7,34.4,190.8,103.2h2.6v-86.3h139.3v578.2c0,90.6-26,158.9-78,204.6
	c-52.1,45.7-125.3,68.7-219.9,68.7c-86.8,0-154.6-17.2-203.1-51.7c-48.5-34.3-74.6-82.5-78-144h147c1.7,30,14.5,53,38.7,69.3
	c24,16.2,56.8,24.3,98,24.3c50.8,0,88.7-13.8,114.2-41.3c25.3-27.6,38.1-72.5,38.1-134.8V790h-2.6c-47.4,64.7-110.4,97.2-189.5,97.2
	c-83.4,0-149.5-28.3-198.6-84.9c-49.1-56.6-73.4-132.9-73.4-228.4c0-95.5,24.9-171.8,74.7-228.4c49.8-56.6,116.5-85.1,199.9-85.1
	L5770.8,260.5z M5804.4,375.8c-47.4,0-84.9,17.7-112.9,53.4c-27.9,35.7-41.9,83.8-41.9,144.6c0,60.8,14,109.1,41.9,145.2
	c27.9,36.1,65.5,54,112.9,54c49.8,0,89.1-17.9,118-54c28.9-36.1,43.2-84.4,43.2-145.2c0-60.8-14.3-108.9-43.2-144.6
	C5893.5,393.6,5854.2,375.8,5804.4,375.8z"/>
<path class="st0" d="M6478,810.7c41.3,0,74.9-9.2,101.2-27.9c26.2-18.7,42.8-43.2,49.6-74.2h150.8c-12.8,58.3-46.1,106.8-99.3,145.7
	c-53.2,38.9-120.8,58.3-202.5,58.3c-98.9,0-176.5-30.4-232.7-91.2s-84.4-141.8-84.4-242.9c0-93.1,28.1-169.7,84.4-229.5
	s133.1-89.8,230.1-89.8c74,0,136.8,18.9,188.9,56.4s87,88.9,105.1,153.6c12.1,36.4,18.1,84.6,18.1,144.6h-481
	c2.6,66.4,19.6,115.9,51,148.2c31.3,32.5,71.5,48.5,120.6,48.5V810.7z M6588.3,402.6c-29.6-27.6-67.2-41.3-112.9-41.3
	c-45.7,0-83.2,13.8-112.9,41.3c-29.6,27.6-47.6,67.6-53.6,120.2h331.4c-5.1-52.7-22.6-92.7-52.3-120.2H6588.3z"/>
<path class="st0" d="M0.7,41.6V239c0,6.6,5.3,11.9,11.9,11.9H321c11.5,0,16.2,14.7,6.8,21.3C133.4,406.6,4.9,629.5,0.7,882.1
	c0,6.6,5.3,12.1,11.9,12.1h201c6.4,0,11.5-5.1,11.7-11.5c5.3-245.4,177.8-450.4,407.9-505.3c7.4-1.7,14.5,4,14.5,11.7v495.9
	c0,6.6,5.3,11.9,11.9,11.9h197.6c6.6,0,11.9-5.3,11.9-11.9V41.6c0-6.6-5.3-11.9-11.9-11.9H12.6C6,29.7,0.7,34.9,0.7,41.6z"/>
</svg>
