<svg width="200" height="33" viewBox="0 0 200 33" fill="none" xmlns="http://www.w3.org/2000/svg">
<path d="M53.901 0.396606V4.09603H45.0096V25.733H40.4857V4.09603H31.5942V0.396606H53.901Z" fill="#383A4A"/>
<path d="M53.901 0.396606V4.09603H45.0096V25.733H40.4857V4.09603H31.5942V0.396606H53.901Z" fill="black" fill-opacity="0.2"/>
<path d="M53.901 0.396606V4.09603H45.0096V25.733H40.4857V4.09603H31.5942V0.396606H53.901Z" fill="black" fill-opacity="0.2"/>
<path d="M53.901 0.396606V4.09603H45.0096V25.733H40.4857V4.09603H31.5942V0.396606H53.901Z" fill="black" fill-opacity="0.2"/>
<path d="M53.901 0.396606V4.09603H45.0096V25.733H40.4857V4.09603H31.5942V0.396606H53.901Z" fill="black" fill-opacity="0.2"/>
<path d="M59.4881 0.396606V9.79541H59.5611C60.9058 8.0856 62.7508 7.23587 65.1065 7.23587C67.3372 7.23587 69.0675 7.86798 70.2975 9.12185C71.5275 10.3757 72.1425 12.2306 72.1425 14.6762V25.7433H67.8063V15.0181C67.8063 12.0026 66.5033 10.5001 63.8869 10.5001C62.5944 10.5001 61.5312 10.9457 60.7181 11.8576C59.8947 12.7591 59.4881 14.044 59.4881 15.7021V25.7433H55.1519V0.396606H59.4881Z" fill="#383A4A"/>
<path d="M59.4881 0.396606V9.79541H59.5611C60.9058 8.0856 62.7508 7.23587 65.1065 7.23587C67.3372 7.23587 69.0675 7.86798 70.2975 9.12185C71.5275 10.3757 72.1425 12.2306 72.1425 14.6762V25.7433H67.8063V15.0181C67.8063 12.0026 66.5033 10.5001 63.8869 10.5001C62.5944 10.5001 61.5312 10.9457 60.7181 11.8576C59.8947 12.7591 59.4881 14.044 59.4881 15.7021V25.7433H55.1519V0.396606H59.4881Z" fill="black" fill-opacity="0.2"/>
<path d="M59.4881 0.396606V9.79541H59.5611C60.9058 8.0856 62.7508 7.23587 65.1065 7.23587C67.3372 7.23587 69.0675 7.86798 70.2975 9.12185C71.5275 10.3757 72.1425 12.2306 72.1425 14.6762V25.7433H67.8063V15.0181C67.8063 12.0026 66.5033 10.5001 63.8869 10.5001C62.5944 10.5001 61.5312 10.9457 60.7181 11.8576C59.8947 12.7591 59.4881 14.044 59.4881 15.7021V25.7433H55.1519V0.396606H59.4881Z" fill="black" fill-opacity="0.2"/>
<path d="M59.4881 0.396606V9.79541H59.5611C60.9058 8.0856 62.7508 7.23587 65.1065 7.23587C67.3372 7.23587 69.0675 7.86798 70.2975 9.12185C71.5275 10.3757 72.1425 12.2306 72.1425 14.6762V25.7433H67.8063V15.0181C67.8063 12.0026 66.5033 10.5001 63.8869 10.5001C62.5944 10.5001 61.5312 10.9457 60.7181 11.8576C59.8947 12.7591 59.4881 14.044 59.4881 15.7021V25.7433H55.1519V0.396606H59.4881Z" fill="black" fill-opacity="0.2"/>
<path d="M59.4881 0.396606V9.79541H59.5611C60.9058 8.0856 62.7508 7.23587 65.1065 7.23587C67.3372 7.23587 69.0675 7.86798 70.2975 9.12185C71.5275 10.3757 72.1425 12.2306 72.1425 14.6762V25.7433H67.8063V15.0181C67.8063 12.0026 66.5033 10.5001 63.8869 10.5001C62.5944 10.5001 61.5312 10.9457 60.7181 11.8576C59.8947 12.7591 59.4881 14.044 59.4881 15.7021V25.7433H55.1519V0.396606H59.4881Z" fill="black" fill-opacity="0.2"/>
<path d="M78.2613 0.396606V4.27219H73.925V0.396606H78.2613ZM78.2613 7.66073V25.7433H73.925V7.66073H78.2613Z" fill="#383A4A"/>
<path d="M78.2613 0.396606V4.27219H73.925V0.396606H78.2613ZM78.2613 7.66073V25.7433H73.925V7.66073H78.2613Z" fill="black" fill-opacity="0.2"/>
<path d="M78.2613 0.396606V4.27219H73.925V0.396606H78.2613ZM78.2613 7.66073V25.7433H73.925V7.66073H78.2613Z" fill="black" fill-opacity="0.2"/>
<path d="M78.2613 0.396606V4.27219H73.925V0.396606H78.2613ZM78.2613 7.66073V25.7433H73.925V7.66073H78.2613Z" fill="black" fill-opacity="0.2"/>
<path d="M78.2613 0.396606V4.27219H73.925V0.396606H78.2613ZM78.2613 7.66073V25.7433H73.925V7.66073H78.2613Z" fill="black" fill-opacity="0.2"/>
<path d="M90.4049 7.22559C92.6355 7.22559 94.3659 7.8577 95.5959 9.11157C96.8259 10.3654 97.4409 12.2203 97.4409 14.6659V25.7331H93.1046V15.0182C93.1046 12.0027 91.8016 10.5001 89.1853 10.5001C87.8927 10.5001 86.8295 10.9457 86.0165 11.8576C85.193 12.7592 84.7865 14.0441 84.7865 15.7021V25.7434H80.4502V7.66081H84.5571V10.0027H84.6301C85.9956 8.15821 87.924 7.22559 90.4049 7.22559Z" fill="#383A4A"/>
<path d="M90.4049 7.22559C92.6355 7.22559 94.3659 7.8577 95.5959 9.11157C96.8259 10.3654 97.4409 12.2203 97.4409 14.6659V25.7331H93.1046V15.0182C93.1046 12.0027 91.8016 10.5001 89.1853 10.5001C87.8927 10.5001 86.8295 10.9457 86.0165 11.8576C85.193 12.7592 84.7865 14.0441 84.7865 15.7021V25.7434H80.4502V7.66081H84.5571V10.0027H84.6301C85.9956 8.15821 87.924 7.22559 90.4049 7.22559Z" fill="black" fill-opacity="0.2"/>
<path d="M90.4049 7.22559C92.6355 7.22559 94.3659 7.8577 95.5959 9.11157C96.8259 10.3654 97.4409 12.2203 97.4409 14.6659V25.7331H93.1046V15.0182C93.1046 12.0027 91.8016 10.5001 89.1853 10.5001C87.8927 10.5001 86.8295 10.9457 86.0165 11.8576C85.193 12.7592 84.7865 14.0441 84.7865 15.7021V25.7434H80.4502V7.66081H84.5571V10.0027H84.6301C85.9956 8.15821 87.924 7.22559 90.4049 7.22559Z" fill="black" fill-opacity="0.2"/>
<path d="M90.4049 7.22559C92.6355 7.22559 94.3659 7.8577 95.5959 9.11157C96.8259 10.3654 97.4409 12.2203 97.4409 14.6659V25.7331H93.1046V15.0182C93.1046 12.0027 91.8016 10.5001 89.1853 10.5001C87.8927 10.5001 86.8295 10.9457 86.0165 11.8576C85.193 12.7592 84.7865 14.0441 84.7865 15.7021V25.7434H80.4502V7.66081H84.5571V10.0027H84.6301C85.9956 8.15821 87.924 7.22559 90.4049 7.22559Z" fill="black" fill-opacity="0.2"/>
<path d="M90.4049 7.22559C92.6355 7.22559 94.3659 7.8577 95.5959 9.11157C96.8259 10.3654 97.4409 12.2203 97.4409 14.6659V25.7331H93.1046V15.0182C93.1046 12.0027 91.8016 10.5001 89.1853 10.5001C87.8927 10.5001 86.8295 10.9457 86.0165 11.8576C85.193 12.7592 84.7865 14.0441 84.7865 15.7021V25.7434H80.4502V7.66081H84.5571V10.0027H84.6301C85.9956 8.15821 87.924 7.22559 90.4049 7.22559Z" fill="black" fill-opacity="0.2"/>
<path d="M107.729 15.9093L117.037 25.733H111.565L103.414 16.9766H103.341V25.733H99.0044V0.396606H103.341V15.0596H103.414L110.45 7.65037H115.505L107.729 15.9093Z" fill="#383A4A"/>
<path d="M107.729 15.9093L117.037 25.733H111.565L103.414 16.9766H103.341V25.733H99.0044V0.396606H103.341V15.0596H103.414L110.45 7.65037H115.505L107.729 15.9093Z" fill="black" fill-opacity="0.2"/>
<path d="M107.729 15.9093L117.037 25.733H111.565L103.414 16.9766H103.341V25.733H99.0044V0.396606H103.341V15.0596H103.414L110.45 7.65037H115.505L107.729 15.9093Z" fill="black" fill-opacity="0.2"/>
<path d="M107.729 15.9093L117.037 25.733H111.565L103.414 16.9766H103.341V25.733H99.0044V0.396606H103.341V15.0596H103.414L110.45 7.65037H115.505L107.729 15.9093Z" fill="black" fill-opacity="0.2"/>
<path d="M107.729 15.9093L117.037 25.733H111.565L103.414 16.9766H103.341V25.733H99.0044V0.396606H103.341V15.0596H103.414L110.45 7.65037H115.505L107.729 15.9093Z" fill="black" fill-opacity="0.2"/>
<path d="M141.304 0.396606V25.733H136.78V14.4171H124.313V25.733H119.748V0.396606H124.313V10.7177H136.78V0.396606H141.304Z" fill="#383A4A"/>
<path d="M141.304 0.396606V25.733H136.78V14.4171H124.313V25.733H119.748V0.396606H124.313V10.7177H136.78V0.396606H141.304Z" fill="black" fill-opacity="0.2"/>
<path d="M141.304 0.396606V25.733H136.78V14.4171H124.313V25.733H119.748V0.396606H124.313V10.7177H136.78V0.396606H141.304Z" fill="black" fill-opacity="0.2"/>
<path d="M141.304 0.396606V25.733H136.78V14.4171H124.313V25.733H119.748V0.396606H124.313V10.7177H136.78V0.396606H141.304Z" fill="black" fill-opacity="0.2"/>
<path d="M141.304 0.396606V25.733H136.78V14.4171H124.313V25.733H119.748V0.396606H124.313V10.7177H136.78V0.396606H141.304Z" fill="black" fill-opacity="0.2"/>
<path d="M150.31 26.158C148.08 26.158 146.349 25.5259 145.119 24.272C143.889 23.0181 143.274 21.1633 143.274 18.7177V7.66089H147.61V18.3757C147.61 21.3912 148.913 22.8938 151.53 22.8938C152.822 22.8938 153.875 22.4482 154.699 21.5363C155.522 20.6348 155.939 19.3498 155.939 17.6918V7.66089H160.275V25.7435H156.168V23.3912H156.085C154.719 25.2357 152.791 26.158 150.31 26.158Z" fill="#383A4A"/>
<path d="M150.31 26.158C148.08 26.158 146.349 25.5259 145.119 24.272C143.889 23.0181 143.274 21.1633 143.274 18.7177V7.66089H147.61V18.3757C147.61 21.3912 148.913 22.8938 151.53 22.8938C152.822 22.8938 153.875 22.4482 154.699 21.5363C155.522 20.6348 155.939 19.3498 155.939 17.6918V7.66089H160.275V25.7435H156.168V23.3912H156.085C154.719 25.2357 152.791 26.158 150.31 26.158Z" fill="black" fill-opacity="0.2"/>
<path d="M150.31 26.158C148.08 26.158 146.349 25.5259 145.119 24.272C143.889 23.0181 143.274 21.1633 143.274 18.7177V7.66089H147.61V18.3757C147.61 21.3912 148.913 22.8938 151.53 22.8938C152.822 22.8938 153.875 22.4482 154.699 21.5363C155.522 20.6348 155.939 19.3498 155.939 17.6918V7.66089H160.275V25.7435H156.168V23.3912H156.085C154.719 25.2357 152.791 26.158 150.31 26.158Z" fill="black" fill-opacity="0.2"/>
<path d="M150.31 26.158C148.08 26.158 146.349 25.5259 145.119 24.272C143.889 23.0181 143.274 21.1633 143.274 18.7177V7.66089H147.61V18.3757C147.61 21.3912 148.913 22.8938 151.53 22.8938C152.822 22.8938 153.875 22.4482 154.699 21.5363C155.522 20.6348 155.939 19.3498 155.939 17.6918V7.66089H160.275V25.7435H156.168V23.3912H156.085C154.719 25.2357 152.791 26.158 150.31 26.158Z" fill="black" fill-opacity="0.2"/>
<path d="M150.31 26.158C148.08 26.158 146.349 25.5259 145.119 24.272C143.889 23.0181 143.274 21.1633 143.274 18.7177V7.66089H147.61V18.3757C147.61 21.3912 148.913 22.8938 151.53 22.8938C152.822 22.8938 153.875 22.4482 154.699 21.5363C155.522 20.6348 155.939 19.3498 155.939 17.6918V7.66089H160.275V25.7435H156.168V23.3912H156.085C154.719 25.2357 152.791 26.158 150.31 26.158Z" fill="black" fill-opacity="0.2"/>
<path d="M170.053 7.15283C172.388 7.15283 174.253 8.158 175.671 10.1787H175.754V7.6606H179.861V24.6033C179.861 27.2561 179.09 29.2561 177.568 30.6032C176.036 31.94 173.878 32.6136 171.085 32.6136C168.52 32.6136 166.529 32.1058 165.101 31.1006C163.673 30.0955 162.902 28.6862 162.808 26.8831H167.144C167.197 27.7639 167.572 28.4375 168.281 28.9141C168.989 29.3908 169.959 29.6291 171.168 29.6291C172.659 29.6291 173.784 29.225 174.535 28.4167C175.275 27.6085 175.661 26.2924 175.661 24.4686V22.6863H175.577C174.18 24.5826 172.325 25.5359 169.99 25.5359C167.53 25.5359 165.581 24.7069 164.132 23.0489C162.683 21.3909 161.964 19.1526 161.964 16.3548C161.964 13.5569 162.704 11.3186 164.163 9.66056C165.643 7.9922 167.603 7.15283 170.053 7.15283ZM171.043 10.5414C169.646 10.5414 168.541 11.0595 167.718 12.1061C166.894 13.1527 166.488 14.562 166.488 16.3444C166.488 18.1267 166.905 19.536 167.718 20.593C168.541 21.65 169.646 22.1785 171.043 22.1785C172.513 22.1785 173.67 21.65 174.514 20.593C175.369 19.536 175.786 18.1164 175.786 16.3444C175.786 14.5724 175.369 13.1527 174.514 12.1061C173.67 11.0595 172.513 10.5414 171.043 10.5414Z" fill="#383A4A"/>
<path d="M170.053 7.15283C172.388 7.15283 174.253 8.158 175.671 10.1787H175.754V7.6606H179.861V24.6033C179.861 27.2561 179.09 29.2561 177.568 30.6032C176.036 31.94 173.878 32.6136 171.085 32.6136C168.52 32.6136 166.529 32.1058 165.101 31.1006C163.673 30.0955 162.902 28.6862 162.808 26.8831H167.144C167.197 27.7639 167.572 28.4375 168.281 28.9141C168.989 29.3908 169.959 29.6291 171.168 29.6291C172.659 29.6291 173.784 29.225 174.535 28.4167C175.275 27.6085 175.661 26.2924 175.661 24.4686V22.6863H175.577C174.18 24.5826 172.325 25.5359 169.99 25.5359C167.53 25.5359 165.581 24.7069 164.132 23.0489C162.683 21.3909 161.964 19.1526 161.964 16.3548C161.964 13.5569 162.704 11.3186 164.163 9.66056C165.643 7.9922 167.603 7.15283 170.053 7.15283ZM171.043 10.5414C169.646 10.5414 168.541 11.0595 167.718 12.1061C166.894 13.1527 166.488 14.562 166.488 16.3444C166.488 18.1267 166.905 19.536 167.718 20.593C168.541 21.65 169.646 22.1785 171.043 22.1785C172.513 22.1785 173.67 21.65 174.514 20.593C175.369 19.536 175.786 18.1164 175.786 16.3444C175.786 14.5724 175.369 13.1527 174.514 12.1061C173.67 11.0595 172.513 10.5414 171.043 10.5414Z" fill="black" fill-opacity="0.2"/>
<path d="M170.053 7.15283C172.388 7.15283 174.253 8.158 175.671 10.1787H175.754V7.6606H179.861V24.6033C179.861 27.2561 179.09 29.2561 177.568 30.6032C176.036 31.94 173.878 32.6136 171.085 32.6136C168.52 32.6136 166.529 32.1058 165.101 31.1006C163.673 30.0955 162.902 28.6862 162.808 26.8831H167.144C167.197 27.7639 167.572 28.4375 168.281 28.9141C168.989 29.3908 169.959 29.6291 171.168 29.6291C172.659 29.6291 173.784 29.225 174.535 28.4167C175.275 27.6085 175.661 26.2924 175.661 24.4686V22.6863H175.577C174.18 24.5826 172.325 25.5359 169.99 25.5359C167.53 25.5359 165.581 24.7069 164.132 23.0489C162.683 21.3909 161.964 19.1526 161.964 16.3548C161.964 13.5569 162.704 11.3186 164.163 9.66056C165.643 7.9922 167.603 7.15283 170.053 7.15283ZM171.043 10.5414C169.646 10.5414 168.541 11.0595 167.718 12.1061C166.894 13.1527 166.488 14.562 166.488 16.3444C166.488 18.1267 166.905 19.536 167.718 20.593C168.541 21.65 169.646 22.1785 171.043 22.1785C172.513 22.1785 173.67 21.65 174.514 20.593C175.369 19.536 175.786 18.1164 175.786 16.3444C175.786 14.5724 175.369 13.1527 174.514 12.1061C173.67 11.0595 172.513 10.5414 171.043 10.5414Z" fill="black" fill-opacity="0.2"/>
<path d="M170.053 7.15283C172.388 7.15283 174.253 8.158 175.671 10.1787H175.754V7.6606H179.861V24.6033C179.861 27.2561 179.09 29.2561 177.568 30.6032C176.036 31.94 173.878 32.6136 171.085 32.6136C168.52 32.6136 166.529 32.1058 165.101 31.1006C163.673 30.0955 162.902 28.6862 162.808 26.8831H167.144C167.197 27.7639 167.572 28.4375 168.281 28.9141C168.989 29.3908 169.959 29.6291 171.168 29.6291C172.659 29.6291 173.784 29.225 174.535 28.4167C175.275 27.6085 175.661 26.2924 175.661 24.4686V22.6863H175.577C174.18 24.5826 172.325 25.5359 169.99 25.5359C167.53 25.5359 165.581 24.7069 164.132 23.0489C162.683 21.3909 161.964 19.1526 161.964 16.3548C161.964 13.5569 162.704 11.3186 164.163 9.66056C165.643 7.9922 167.603 7.15283 170.053 7.15283ZM171.043 10.5414C169.646 10.5414 168.541 11.0595 167.718 12.1061C166.894 13.1527 166.488 14.562 166.488 16.3444C166.488 18.1267 166.905 19.536 167.718 20.593C168.541 21.65 169.646 22.1785 171.043 22.1785C172.513 22.1785 173.67 21.65 174.514 20.593C175.369 19.536 175.786 18.1164 175.786 16.3444C175.786 14.5724 175.369 13.1527 174.514 12.1061C173.67 11.0595 172.513 10.5414 171.043 10.5414Z" fill="black" fill-opacity="0.2"/>
<path d="M170.053 7.15283C172.388 7.15283 174.253 8.158 175.671 10.1787H175.754V7.6606H179.861V24.6033C179.861 27.2561 179.09 29.2561 177.568 30.6032C176.036 31.94 173.878 32.6136 171.085 32.6136C168.52 32.6136 166.529 32.1058 165.101 31.1006C163.673 30.0955 162.902 28.6862 162.808 26.8831H167.144C167.197 27.7639 167.572 28.4375 168.281 28.9141C168.989 29.3908 169.959 29.6291 171.168 29.6291C172.659 29.6291 173.784 29.225 174.535 28.4167C175.275 27.6085 175.661 26.2924 175.661 24.4686V22.6863H175.577C174.18 24.5826 172.325 25.5359 169.99 25.5359C167.53 25.5359 165.581 24.7069 164.132 23.0489C162.683 21.3909 161.964 19.1526 161.964 16.3548C161.964 13.5569 162.704 11.3186 164.163 9.66056C165.643 7.9922 167.603 7.15283 170.053 7.15283ZM171.043 10.5414C169.646 10.5414 168.541 11.0595 167.718 12.1061C166.894 13.1527 166.488 14.562 166.488 16.3444C166.488 18.1267 166.905 19.536 167.718 20.593C168.541 21.65 169.646 22.1785 171.043 22.1785C172.513 22.1785 173.67 21.65 174.514 20.593C175.369 19.536 175.786 18.1164 175.786 16.3444C175.786 14.5724 175.369 13.1527 174.514 12.1061C173.67 11.0595 172.513 10.5414 171.043 10.5414Z" fill="black" fill-opacity="0.2"/>
<path d="M190.9 23.2771C192.12 23.2771 193.11 23.0077 193.881 22.4585C194.653 21.9093 195.143 21.1942 195.341 20.2823H199.781C199.406 21.9922 198.426 23.4118 196.852 24.5517C195.278 25.6916 193.287 26.2615 190.879 26.2615C187.961 26.2615 185.678 25.3703 184.02 23.588C182.363 21.8056 181.54 19.4326 181.54 16.4689C181.54 13.7436 182.363 11.4949 184.02 9.74365C185.678 7.99239 187.94 7.11157 190.806 7.11157C192.985 7.11157 194.84 7.66079 196.373 8.76958C197.905 9.87837 198.937 11.3706 199.468 13.2669C199.823 14.3343 200 15.7436 200 17.5052H185.824C185.897 19.4533 186.407 20.9041 187.325 21.8471C188.273 22.8004 189.451 23.2771 190.9 23.2771ZM194.152 11.3188C193.277 10.5105 192.172 10.1063 190.827 10.1063C189.482 10.1063 188.378 10.5105 187.502 11.3188C186.626 12.127 186.105 13.298 185.918 14.842H195.685C195.539 13.298 195.017 12.127 194.152 11.3188Z" fill="#383A4A"/>
<path d="M190.9 23.2771C192.12 23.2771 193.11 23.0077 193.881 22.4585C194.653 21.9093 195.143 21.1942 195.341 20.2823H199.781C199.406 21.9922 198.426 23.4118 196.852 24.5517C195.278 25.6916 193.287 26.2615 190.879 26.2615C187.961 26.2615 185.678 25.3703 184.02 23.588C182.363 21.8056 181.54 19.4326 181.54 16.4689C181.54 13.7436 182.363 11.4949 184.02 9.74365C185.678 7.99239 187.94 7.11157 190.806 7.11157C192.985 7.11157 194.84 7.66079 196.373 8.76958C197.905 9.87837 198.937 11.3706 199.468 13.2669C199.823 14.3343 200 15.7436 200 17.5052H185.824C185.897 19.4533 186.407 20.9041 187.325 21.8471C188.273 22.8004 189.451 23.2771 190.9 23.2771ZM194.152 11.3188C193.277 10.5105 192.172 10.1063 190.827 10.1063C189.482 10.1063 188.378 10.5105 187.502 11.3188C186.626 12.127 186.105 13.298 185.918 14.842H195.685C195.539 13.298 195.017 12.127 194.152 11.3188Z" fill="black" fill-opacity="0.2"/>
<path d="M190.9 23.2771C192.12 23.2771 193.11 23.0077 193.881 22.4585C194.653 21.9093 195.143 21.1942 195.341 20.2823H199.781C199.406 21.9922 198.426 23.4118 196.852 24.5517C195.278 25.6916 193.287 26.2615 190.879 26.2615C187.961 26.2615 185.678 25.3703 184.02 23.588C182.363 21.8056 181.54 19.4326 181.54 16.4689C181.54 13.7436 182.363 11.4949 184.02 9.74365C185.678 7.99239 187.94 7.11157 190.806 7.11157C192.985 7.11157 194.84 7.66079 196.373 8.76958C197.905 9.87837 198.937 11.3706 199.468 13.2669C199.823 14.3343 200 15.7436 200 17.5052H185.824C185.897 19.4533 186.407 20.9041 187.325 21.8471C188.273 22.8004 189.451 23.2771 190.9 23.2771ZM194.152 11.3188C193.277 10.5105 192.172 10.1063 190.827 10.1063C189.482 10.1063 188.378 10.5105 187.502 11.3188C186.626 12.127 186.105 13.298 185.918 14.842H195.685C195.539 13.298 195.017 12.127 194.152 11.3188Z" fill="black" fill-opacity="0.2"/>
<path d="M190.9 23.2771C192.12 23.2771 193.11 23.0077 193.881 22.4585C194.653 21.9093 195.143 21.1942 195.341 20.2823H199.781C199.406 21.9922 198.426 23.4118 196.852 24.5517C195.278 25.6916 193.287 26.2615 190.879 26.2615C187.961 26.2615 185.678 25.3703 184.02 23.588C182.363 21.8056 181.54 19.4326 181.54 16.4689C181.54 13.7436 182.363 11.4949 184.02 9.74365C185.678 7.99239 187.94 7.11157 190.806 7.11157C192.985 7.11157 194.84 7.66079 196.373 8.76958C197.905 9.87837 198.937 11.3706 199.468 13.2669C199.823 14.3343 200 15.7436 200 17.5052H185.824C185.897 19.4533 186.407 20.9041 187.325 21.8471C188.273 22.8004 189.451 23.2771 190.9 23.2771ZM194.152 11.3188C193.277 10.5105 192.172 10.1063 190.827 10.1063C189.482 10.1063 188.378 10.5105 187.502 11.3188C186.626 12.127 186.105 13.298 185.918 14.842H195.685C195.539 13.298 195.017 12.127 194.152 11.3188Z" fill="black" fill-opacity="0.2"/>
<path d="M190.9 23.2771C192.12 23.2771 193.11 23.0077 193.881 22.4585C194.653 21.9093 195.143 21.1942 195.341 20.2823H199.781C199.406 21.9922 198.426 23.4118 196.852 24.5517C195.278 25.6916 193.287 26.2615 190.879 26.2615C187.961 26.2615 185.678 25.3703 184.02 23.588C182.363 21.8056 181.54 19.4326 181.54 16.4689C181.54 13.7436 182.363 11.4949 184.02 9.74365C185.678 7.99239 187.94 7.11157 190.806 7.11157C192.985 7.11157 194.84 7.66079 196.373 8.76958C197.905 9.87837 198.937 11.3706 199.468 13.2669C199.823 14.3343 200 15.7436 200 17.5052H185.824C185.897 19.4533 186.407 20.9041 187.325 21.8471C188.273 22.8004 189.451 23.2771 190.9 23.2771ZM194.152 11.3188C193.277 10.5105 192.172 10.1063 190.827 10.1063C189.482 10.1063 188.378 10.5105 187.502 11.3188C186.626 12.127 186.105 13.298 185.918 14.842H195.685C195.539 13.298 195.017 12.127 194.152 11.3188Z" fill="black" fill-opacity="0.2"/>
<path d="M0 0.738556V6.52084C0 6.71773 0.156356 6.87317 0.354407 6.87317H9.4439C9.78788 6.87317 9.92339 7.3084 9.64195 7.49492C3.9089 11.4327 0.125085 17.9611 0 25.3599C0 25.5568 0.156356 25.7122 0.354407 25.7122H6.27508C6.46271 25.7122 6.61907 25.5672 6.61907 25.3703C6.77542 18.1994 11.8622 12.1891 18.6376 10.583C18.8565 10.5311 19.065 10.6969 19.065 10.9249V25.4532C19.065 25.6501 19.2214 25.8055 19.4194 25.8055H25.2463C25.4443 25.8055 25.6007 25.6501 25.6007 25.4532V0.738556C25.6007 0.541668 25.4443 0.38623 25.2463 0.38623H0.354407C0.156356 0.396593 0 0.552031 0 0.738556Z" fill="#383A4A"/>
<path d="M0 0.738556V6.52084C0 6.71773 0.156356 6.87317 0.354407 6.87317H9.4439C9.78788 6.87317 9.92339 7.3084 9.64195 7.49492C3.9089 11.4327 0.125085 17.9611 0 25.3599C0 25.5568 0.156356 25.7122 0.354407 25.7122H6.27508C6.46271 25.7122 6.61907 25.5672 6.61907 25.3703C6.77542 18.1994 11.8622 12.1891 18.6376 10.583C18.8565 10.5311 19.065 10.6969 19.065 10.9249V25.4532C19.065 25.6501 19.2214 25.8055 19.4194 25.8055H25.2463C25.4443 25.8055 25.6007 25.6501 25.6007 25.4532V0.738556C25.6007 0.541668 25.4443 0.38623 25.2463 0.38623H0.354407C0.156356 0.396593 0 0.552031 0 0.738556Z" fill="black" fill-opacity="0.2"/>
<path d="M0 0.738556V6.52084C0 6.71773 0.156356 6.87317 0.354407 6.87317H9.4439C9.78788 6.87317 9.92339 7.3084 9.64195 7.49492C3.9089 11.4327 0.125085 17.9611 0 25.3599C0 25.5568 0.156356 25.7122 0.354407 25.7122H6.27508C6.46271 25.7122 6.61907 25.5672 6.61907 25.3703C6.77542 18.1994 11.8622 12.1891 18.6376 10.583C18.8565 10.5311 19.065 10.6969 19.065 10.9249V25.4532C19.065 25.6501 19.2214 25.8055 19.4194 25.8055H25.2463C25.4443 25.8055 25.6007 25.6501 25.6007 25.4532V0.738556C25.6007 0.541668 25.4443 0.38623 25.2463 0.38623H0.354407C0.156356 0.396593 0 0.552031 0 0.738556Z" fill="black" fill-opacity="0.2"/>
<path d="M0 0.738556V6.52084C0 6.71773 0.156356 6.87317 0.354407 6.87317H9.4439C9.78788 6.87317 9.92339 7.3084 9.64195 7.49492C3.9089 11.4327 0.125085 17.9611 0 25.3599C0 25.5568 0.156356 25.7122 0.354407 25.7122H6.27508C6.46271 25.7122 6.61907 25.5672 6.61907 25.3703C6.77542 18.1994 11.8622 12.1891 18.6376 10.583C18.8565 10.5311 19.065 10.6969 19.065 10.9249V25.4532C19.065 25.6501 19.2214 25.8055 19.4194 25.8055H25.2463C25.4443 25.8055 25.6007 25.6501 25.6007 25.4532V0.738556C25.6007 0.541668 25.4443 0.38623 25.2463 0.38623H0.354407C0.156356 0.396593 0 0.552031 0 0.738556Z" fill="black" fill-opacity="0.2"/>
<path d="M0 0.738556V6.52084C0 6.71773 0.156356 6.87317 0.354407 6.87317H9.4439C9.78788 6.87317 9.92339 7.3084 9.64195 7.49492C3.9089 11.4327 0.125085 17.9611 0 25.3599C0 25.5568 0.156356 25.7122 0.354407 25.7122H6.27508C6.46271 25.7122 6.61907 25.5672 6.61907 25.3703C6.77542 18.1994 11.8622 12.1891 18.6376 10.583C18.8565 10.5311 19.065 10.6969 19.065 10.9249V25.4532C19.065 25.6501 19.2214 25.8055 19.4194 25.8055H25.2463C25.4443 25.8055 25.6007 25.6501 25.6007 25.4532V0.738556C25.6007 0.541668 25.4443 0.38623 25.2463 0.38623H0.354407C0.156356 0.396593 0 0.552031 0 0.738556Z" fill="black" fill-opacity="0.2"/>
</svg>
