<?xml version="1.0" encoding="UTF-8"?>
<svg width="401px" height="90px" viewBox="0 0 401 90" version="1.1" xmlns="http://www.w3.org/2000/svg" xmlns:xlink="http://www.w3.org/1999/xlink">
    <!-- Generator: Sketch 58 (84663) - https://sketch.com -->
    <title>logo-thinkhuge-dark-v2</title>
    <desc>Created with Sketch.</desc>
    <defs>
        <linearGradient x1="63.7625683%" y1="2.76920892%" x2="33.525025%" y2="100%" id="linearGradient-1">
            <stop stop-color="#26A6EB" offset="0%"></stop>
            <stop stop-color="#3990EA" offset="42.5084447%"></stop>
            <stop stop-color="#2657EB" offset="100%"></stop>
        </linearGradient>
        <linearGradient x1="68.7320031%" y1="2.76920892%" x2="27.5761852%" y2="100%" id="linearGradient-2">
            <stop stop-color="#26A6EB" offset="0%"></stop>
            <stop stop-color="#2657EB" offset="100%"></stop>
        </linearGradient>
        <linearGradient x1="68.7323846%" y1="3.86363877%" x2="27.5757285%" y2="98.8414022%" id="linearGradient-3">
            <stop stop-color="#26A6EB" offset="0%"></stop>
            <stop stop-color="#2657EB" offset="100%"></stop>
        </linearGradient>
    </defs>
    <g id="Page-1" stroke="none" stroke-width="1" fill="none" fill-rule="evenodd">
        <g id="logo-thinkhuge-dark-v2" transform="translate(-22.000000, -10.000000)">
            <g id="thinkhuge-lettering" transform="translate(86.744681, 31.276596)" fill="#1B0043" fill-rule="nonzero" stroke="#1B0043" stroke-width="0.5">
                <path d="M15.8037886,51.2157998 L24.0916353,51.2157998 L24.0916353,9.39887472 L39.7004133,9.39887472 L39.7004133,2.27962962 L0.125945174,2.27962962 L0.125945174,9.39887472 L15.8037886,9.39887472 L15.8037886,51.2157998 Z M44.8067962,0.151970041 L44.8067962,51.2157998 L52.3428148,51.2157998 L52.3428148,31.0116829 C52.3428148,25.4071162 56.6984952,21.3939697 61.9529669,21.3939697 C67.2074386,21.3939697 70.3186389,25.1303475 70.3186389,30.3197611 L70.3186389,51.2157998 L77.7855196,51.2157998 L77.7855196,29.6970314 C77.7855196,20.9788166 72.2544968,14.6823281 63.543136,14.6823281 C59.1183177,14.6823281 54.6934995,16.7580935 52.3428148,20.2868948 L52.3428148,0.151970041 L44.8067962,0.151970041 Z M82.8919026,16.1094168 L82.8919026,51.2157998 L90.3387111,51.2157998 L90.3387111,16.1094168 L82.8919026,16.1094168 Z M85.8849488,11.0638298 C88.5279748,11.0638298 90.4255319,9.16827853 90.4255319,6.52804642 C90.4255319,3.95551257 88.5279748,2.12765957 85.8849488,2.12765957 C83.1741529,2.12765957 81.2765957,3.95551257 81.2765957,6.52804642 C81.2765957,9.16827853 83.1741529,11.0638298 85.8849488,11.0638298 Z M95.4450941,15.9981983 L95.4450941,51.0030339 L102.981113,51.0030339 L102.981113,30.8821441 C102.981113,25.3006644 107.336793,21.3040493 112.591265,21.3040493 C117.845736,21.3040493 120.956937,25.0250358 120.956937,30.1930726 L120.956937,51.0030339 L128.423818,51.0030339 L128.423818,29.6418153 C128.423818,20.9595136 122.823657,14.6200551 114.250572,14.6200551 C109.687478,14.6200551 105.331797,16.8250842 102.842837,20.4771635 L102.842837,15.9981983 L95.4450941,15.9981983 Z M131.828073,51.2157998 L139.370438,51.2157998 L139.370438,35.1632138 L153.555619,51.2157998 L163.104669,51.2157998 L146.151647,32.3263343 L162.481905,16.0661717 L152.863659,16.0661717 L139.370438,29.6278393 L139.370438,0.151970041 L131.828073,0.151970041 L131.828073,51.2157998 Z" id="ThinkHuge"></path>
                <path d="M273.137282,14.8328211 C278.453305,14.8328211 282.655477,16.9944999 285.616206,20.5524783 L285.853543,20.8440078 L285.853543,16.0765149 L293.317435,16.0765149 L293.317435,50.5544706 C293.317435,61.8859029 285.646212,68.4498424 274.934145,68.4498424 C265.866712,68.4498424 258.346141,62.8017404 256.95031,54.8884006 L256.896406,54.5619284 L263.807417,53.7327992 C264.982289,58.5693861 269.543557,62.0931852 274.657705,62.0931852 C281.05255,62.0931852 285.639278,58.0091268 285.781052,50.8295948 L285.784433,50.4853765 L285.784433,45.99426 C282.812698,49.7253414 278.389651,51.8672585 273.137282,51.8672585 C262.908986,51.8672585 255.445094,44.2669075 255.445094,33.6264162 C255.445094,22.7095485 262.908986,14.8328211 273.137282,14.8328211 Z M317.216312,14.8328211 C328.13254,14.8328211 335.870626,22.5731535 335.870626,33.4234408 C335.870626,34.2527621 335.801536,35.2894137 335.732446,36.1187351 L306.161903,36.049625 C307.060074,42.2695349 311.412747,46.4161415 317.147222,46.4161415 C321.845345,46.4161415 326.198019,43.6517371 327.51073,39.7815709 L334.557915,40.8182226 C332.554304,47.7292336 325.299848,52.7051615 317.285402,52.7051615 C306.300084,52.7051615 298.423818,44.6192786 298.423818,33.3543307 C298.423818,22.5731535 306.300084,14.8328211 317.216312,14.8328211 Z M224.896006,16.1094168 L224.896006,36.9193782 C224.896006,42.0874149 227.938069,45.8084014 233.261678,45.8084014 C238.35761,45.8084014 242.719024,41.9484125 242.867903,36.5175781 L242.87183,36.2303066 L242.87183,16.1094168 L250.338711,16.1094168 L250.338711,51.1142524 L242.940968,51.1142524 L242.940968,46.6352873 C240.521146,50.2873666 236.096327,52.4923956 231.602371,52.4923956 C223.072385,52.4923956 217.50596,46.3165292 217.362816,37.8077127 L217.359988,37.4706354 L217.359988,16.1094168 L224.896006,16.1094168 Z M179.963752,2.27962962 L179.963752,22.2549872 L203.90516,22.2549872 L203.90516,2.27962962 L212.253605,2.27962962 L212.253605,51.2157998 L203.90516,51.2157998 L203.90516,29.3051134 L179.963752,29.3051134 L179.963752,51.2157998 L171.615307,51.2157998 L171.615307,2.27962962 L179.963752,2.27962962 Z M273.456252,21.3967606 C266.752571,21.3967606 261.845754,26.5097239 261.845754,33.6264162 C261.845754,40.466732 266.752571,45.4415072 273.456252,45.4415072 C280.159933,45.4415072 284.99764,40.466732 284.99764,33.6264162 C284.99764,26.5097239 280.159933,21.3967606 273.456252,21.3967606 Z M317.009042,21.1218411 C311.446664,21.1218411 307.349499,24.7859335 306.286895,30.2172692 L306.230993,30.5208161 L328.06345,30.5208161 C327.234369,24.9920073 322.812606,21.1218411 317.009042,21.1218411 Z" id="Combined-Shape"></path>
            </g>
            <g id="logo-icon" transform="translate(44.798184, 50.501450) rotate(24.000000) translate(-44.798184, -50.501450) translate(15.298184, 8.501450)">
                <g id="Group-25">
                    <g id="Group-4" transform="translate(27.696064, 31.508146) rotate(3.000000) translate(-27.696064, -31.508146) translate(1.696064, 1.508146)" fill="url(#linearGradient-1)">
                        <path d="M25.5925532,0 C39.72693,0 51.1851064,11.499662 51.1851064,25.6852139 C51.1851064,36.573769 44.4341775,45.8798513 34.9039086,49.6174924 L34.9055616,49.6175976 L15.7431803,59.4449772 L15.5696694,59.521942 C14.883927,59.8041463 14.2977971,59.7784913 13.8112798,59.4449772 C13.0206891,58.9030169 12.7129698,58.31947 12.6144265,57.300175 C12.5558322,56.6940972 12.5494986,53.5326882 12.5954257,47.815948 C5.05659527,43.3471388 0,35.1088299 0,25.6852139 C0,11.499662 11.4581764,0 25.5925532,0 Z" id="Combined-Shape"></path>
                    </g>
                    <g id="Group-22-Copy-8" transform="translate(40.250964, 59.521750) rotate(-69.000000) translate(-40.250964, -59.521750) translate(26.250964, 45.521750)" fill="url(#linearGradient-2)" fill-rule="nonzero">
                        <path d="M1.14911005,1.14938773 C2.68162711,-0.383129242 5.16608933,-0.383129242 6.69860639,1.14938773 L26.1211031,20.5722547 C27.6536201,22.1044015 27.6536201,24.589234 26.1211031,26.1213808 C24.5889563,27.6538978 22.1041238,27.6538978 20.571977,26.1213808 L1.14911005,6.69888416 C-0.383036682,5.1663671 -0.383036682,2.68190479 1.14911005,1.14938773 Z" id="Path"></path>
                    </g>
                    <g id="Group-22-Copy-9" transform="translate(44.908535, 69.939918) rotate(-68.500000) translate(-44.908535, -69.939918) translate(34.408535, 59.439918)" fill="url(#linearGradient-3)" fill-rule="nonzero">
                        <path d="M1.2225313,1.3119397 C2.75504837,-0.220577267 5.23951059,-0.220577267 6.77202765,1.3119397 L19.4130703,13.7142981 C20.9455874,15.2464449 20.9455874,17.7312774 19.4130703,19.2634243 C17.8809236,20.7959412 15.3960911,20.7959412 13.8639442,19.2634243 L1.2225313,6.86143614 C-0.309615424,5.32891908 -0.309615424,2.84445676 1.2225313,1.3119397 Z" id="Path"></path>
                    </g>
                </g>
            </g>
        </g>
    </g>
</svg>