<svg width="71" height="71" viewBox="0 0 71 71" fill="none" xmlns="http://www.w3.org/2000/svg">
<path d="M61.5363 39.2591C64.1363 39.0591 66.2363 40.7591 66.4363 43.3591C66.6363 46.0591 64.7363 48.2591 62.1363 48.4591C59.6363 48.6591 57.4363 46.7591 57.2363 44.2591C57.0363 41.5591 58.8363 39.5591 61.5363 39.2591Z" fill="#D9D9D9"/>
<path d="M29.936 60.5591C29.936 57.9591 31.936 55.9591 34.336 55.9591C36.736 55.9591 39.036 58.1591 39.036 60.6591C39.036 63.0591 37.036 65.1591 34.736 65.2591C31.836 65.2591 29.936 63.4591 29.936 60.5591Z" fill="#D9D9D9"/>
<path d="M37.0368 31.3591C36.6368 31.5591 36.4368 31.2591 36.3368 30.9591C32.6368 24.0591 33.7368 15.3591 40.2368 10.1591C41.9368 8.75908 45.1368 8.45908 46.5368 9.85908C47.1368 10.3591 47.2368 10.9591 47.3368 11.6591C47.5368 13.1591 47.8368 14.6591 48.8368 15.8591C49.9368 17.1591 51.3368 17.6591 52.9368 17.5591C54.3368 17.5591 55.7368 17.3591 56.6368 18.9591C57.1368 19.8591 56.9368 23.3591 56.1368 24.0591C55.7368 24.3591 55.4368 24.1591 55.1368 24.0591C52.8368 23.1591 50.4368 23.1591 48.0368 23.5591C47.2368 23.6591 46.8368 23.4591 46.8368 22.5591C46.7368 21.0591 46.4368 19.6591 45.6368 18.3591C44.1368 15.6591 41.3368 15.5591 39.5368 18.0591C38.0368 20.0591 37.6368 22.4591 37.2368 24.8591C36.8368 26.9591 36.9368 29.1591 37.0368 31.3591Z" fill="#D9D9D9"/>
<path d="M39.5361 32.8591C39.3361 32.5591 39.4361 32.2591 39.7361 32.0591C45.4361 26.8591 53.9361 25.8591 60.5361 30.9591C62.2361 32.3591 63.3361 35.2591 62.4361 36.9591C62.0361 37.659 61.5361 37.959 60.9361 38.159C59.5361 38.759 58.2361 39.3591 57.3361 40.659C56.4361 41.959 56.2361 43.459 56.6361 45.059C56.9361 46.359 57.4361 47.759 56.1361 48.959C55.4361 49.659 52.0361 50.259 51.1361 49.659C50.7361 49.3591 50.8361 49.0591 50.9361 48.659C51.2361 46.159 50.6361 43.8591 49.7361 41.659C49.4361 40.8591 49.5361 40.459 50.3361 40.259C51.7361 39.859 53.0361 39.159 54.0361 38.159C56.2361 36.059 55.7361 33.3591 52.8361 32.159C50.5361 31.159 48.1361 31.3591 45.8361 31.5591C43.6361 31.6591 41.5361 32.2591 39.5361 32.8591Z" fill="#D9D9D9"/>
<path d="M38.2363 35.4591C38.5363 35.1591 38.7363 35.2591 39.0363 35.4591C45.6363 39.4591 49.0363 47.3591 46.0363 55.0591C45.2363 57.0591 42.6363 59.0591 40.7363 58.5591C39.9363 58.3591 39.5363 57.9591 39.1363 57.4591C38.2363 56.2591 37.2363 55.1591 35.7363 54.6591C34.1363 54.1591 32.7363 54.4591 31.3363 55.2591C30.1363 55.9591 28.9363 56.8591 27.4363 55.9591C26.5363 55.4591 25.0363 52.3591 25.3363 51.3591C25.5363 50.9591 25.9363 50.9591 26.3363 50.9591C28.8363 50.5591 30.8363 49.3591 32.7363 47.7591C33.3363 47.2591 33.8363 47.2591 34.3363 47.9591C35.1363 49.1591 36.1363 50.1591 37.4363 50.8591C40.0363 52.3591 42.5363 51.0591 42.8363 48.0591C43.1363 45.5591 42.2363 43.3591 41.4363 41.1591C40.5363 39.1591 39.4363 37.2591 38.2363 35.4591Z" fill="#D9D9D9"/>
<path d="M35.0352 36.0591C34.6352 38.0591 33.7352 39.9591 32.5352 41.6591C28.9352 47.0591 23.7352 49.2591 17.3352 48.6591C15.0352 48.4591 13.1352 46.5591 12.9352 44.6591C12.8352 43.8591 13.0352 43.2591 13.5352 42.6591C14.2352 41.7591 14.8352 40.9591 15.1352 39.8591C15.7352 37.6591 14.9352 35.8591 13.3352 34.2591C11.1352 32.0591 11.4352 30.0591 14.0352 28.4591C14.3352 28.2591 14.7352 28.0591 15.1352 27.8591C15.7352 27.5591 16.2352 27.5591 16.4352 28.2591C17.3352 30.5591 19.1352 32.2591 21.1352 33.6591C21.8352 34.2591 21.8352 34.6591 21.2352 35.3591C20.0352 36.6591 19.3352 38.2591 19.2352 40.0591C19.0352 42.2591 20.3352 43.6591 22.5352 43.6591C23.9352 43.6591 25.2352 43.1591 26.4352 42.5591C29.5352 40.9591 31.9352 38.6591 34.2352 36.2591C34.5352 36.1591 34.6352 35.9591 35.0352 36.0591Z" fill="#D9D9D9"/>
<path d="M18.637 15.0591C18.837 15.0591 19.337 15.1591 19.837 15.2591C23.537 15.9591 25.837 14.6591 27.037 11.1591C27.837 8.85909 29.537 8.15909 31.737 9.35909C31.837 9.35909 31.837 9.45909 31.937 9.45909C34.237 10.7591 34.237 10.9591 32.837 12.9591C31.637 14.5591 31.037 16.3591 30.737 18.2591C30.537 19.3591 30.137 19.5591 29.137 19.1591C27.537 18.5591 25.837 18.5591 24.137 19.1591C22.237 19.7591 21.437 21.4591 22.037 23.3591C22.837 25.8591 25.037 26.9591 26.937 28.2591C28.837 29.5591 31.037 30.2591 33.137 31.1591C33.437 31.2591 33.937 31.2591 33.837 31.7591C33.737 32.0591 33.337 32.0591 32.937 32.0591C28.437 32.2591 24.137 31.5591 20.637 28.5591C17.337 25.8591 14.937 22.5591 15.337 17.9591C15.637 16.4591 16.737 15.3591 18.637 15.0591Z" fill="#D9D9D9"/>
<path d="M10.4361 43.1591C8.03612 43.4591 5.63612 41.4591 5.43612 38.9591C5.23612 36.5591 7.23612 34.1591 9.53612 33.9591C12.1361 33.6591 14.5361 35.4591 14.7361 37.8591C14.8361 40.1591 13.3361 42.9591 10.4361 43.1591Z" fill="#D9D9D9"/>
<path d="M52.4363 7.55906C54.9363 7.35906 57.3363 9.35906 57.5363 11.8591C57.7363 14.2591 55.7363 16.5591 53.3363 16.7591C50.7363 16.9591 48.4363 15.0591 48.2363 12.5591C48.0363 10.0591 49.8363 7.75906 52.4363 7.55906Z" fill="#D9D9D9"/>
<path d="M26.336 9.45908C26.636 12.0591 24.836 14.2591 22.136 14.6591C19.836 14.9591 17.436 13.0591 17.136 10.8591C16.836 7.95908 18.436 5.85908 21.136 5.55908C23.636 5.25908 26.036 7.15908 26.336 9.45908Z" fill="#D9D9D9"/>
</svg>
