<svg width="1053" height="882" viewBox="0 0 1053 882" fill="none" xmlns="http://www.w3.org/2000/svg">
<mask id="path-1-inside-1_5568_36428" fill="white">
<path d="M0.625488 8.57679C0.625488 4.06217 4.28531 0.402344 8.79993 0.402344H185.229C189.744 0.402344 193.404 4.06217 193.404 8.57678V153.935C193.404 158.45 189.744 162.11 185.229 162.11H8.79994C4.28532 162.11 0.625488 158.45 0.625488 153.935V8.57679Z"/>
<path d="M215.368 8.57679C215.368 4.06217 219.028 0.402344 223.543 0.402344H399.972C404.486 0.402344 408.146 4.06217 408.146 8.57678V153.935C408.146 158.45 404.486 162.11 399.972 162.11H223.543C219.028 162.11 215.368 158.45 215.368 153.935V8.57679Z"/>
<path d="M430.111 8.57679C430.111 4.06217 433.771 0.402344 438.285 0.402344H614.715C619.229 0.402344 622.889 4.06217 622.889 8.57678V153.935C622.889 158.45 619.229 162.11 614.715 162.11H438.285C433.771 162.11 430.111 158.45 430.111 153.935V8.57679Z"/>
<path d="M644.854 8.57679C644.854 4.06217 648.513 0.402344 653.028 0.402344H829.457C833.972 0.402344 837.632 4.06217 837.632 8.57678V153.935C837.632 158.45 833.972 162.11 829.457 162.11H653.028C648.513 162.11 644.854 158.45 644.854 153.935V8.57679Z"/>
<path d="M859.596 8.57679C859.596 4.06217 863.256 0.402344 867.771 0.402344H1044.2C1048.71 0.402344 1052.37 4.06217 1052.37 8.57678V153.935C1052.37 158.45 1048.71 162.11 1044.2 162.11H867.771C863.256 162.11 859.596 158.45 859.596 153.935V8.57679Z"/>
<path d="M0.625488 188.449C0.625488 183.934 4.28531 180.274 8.79993 180.274H185.229C189.744 180.274 193.404 183.934 193.404 188.449V333.807C193.404 338.322 189.744 341.982 185.229 341.982H8.79994C4.28532 341.982 0.625488 338.322 0.625488 333.807V188.449Z"/>
<path d="M215.368 188.449C215.368 183.934 219.028 180.274 223.543 180.274H399.972C404.486 180.274 408.146 183.934 408.146 188.449V333.807C408.146 338.322 404.486 341.982 399.972 341.982H223.543C219.028 341.982 215.368 338.322 215.368 333.807V188.449Z"/>
<path d="M430.111 188.449C430.111 183.934 433.771 180.274 438.285 180.274H614.715C619.229 180.274 622.889 183.934 622.889 188.449V333.807C622.889 338.322 619.229 341.982 614.715 341.982H438.285C433.771 341.982 430.111 338.322 430.111 333.807V188.449Z"/>
<path d="M644.854 188.449C644.854 183.934 648.513 180.274 653.028 180.274H829.457C833.972 180.274 837.632 183.934 837.632 188.449V333.807C837.632 338.322 833.972 341.982 829.457 341.982H653.028C648.513 341.982 644.854 338.322 644.854 333.807V188.449Z"/>
<path d="M859.596 188.449C859.596 183.934 863.256 180.274 867.771 180.274H1044.2C1048.71 180.274 1052.37 183.934 1052.37 188.449V333.807C1052.37 338.322 1048.71 341.982 1044.2 341.982H867.771C863.256 341.982 859.596 338.322 859.596 333.807V188.449Z"/>
<path d="M0.625488 368.321C0.625488 363.806 4.28531 360.147 8.79993 360.147H185.229C189.744 360.147 193.404 363.806 193.404 368.321V513.679C193.404 518.194 189.744 521.854 185.229 521.854H8.79994C4.28532 521.854 0.625488 518.194 0.625488 513.679V368.321Z"/>
<path d="M215.368 368.321C215.368 363.806 219.028 360.147 223.543 360.147H399.972C404.486 360.147 408.146 363.806 408.146 368.321V513.679C408.146 518.194 404.486 521.854 399.972 521.854H223.543C219.028 521.854 215.368 518.194 215.368 513.679V368.321Z"/>
<path d="M430.111 368.321C430.111 363.806 433.771 360.147 438.285 360.147H614.715C619.229 360.147 622.889 363.806 622.889 368.321V513.679C622.889 518.194 619.229 521.854 614.715 521.854H438.285C433.771 521.854 430.111 518.194 430.111 513.679V368.321Z"/>
<path d="M644.854 368.321C644.854 363.806 648.513 360.147 653.028 360.147H829.457C833.972 360.147 837.632 363.806 837.632 368.321V513.679C837.632 518.194 833.972 521.854 829.457 521.854H653.028C648.513 521.854 644.854 518.194 644.854 513.679V368.321Z"/>
<path d="M859.596 368.321C859.596 363.806 863.256 360.147 867.771 360.147H1044.2C1048.71 360.147 1052.37 363.806 1052.37 368.321V513.679C1052.37 518.194 1048.71 521.854 1044.2 521.854H867.771C863.256 521.854 859.596 518.194 859.596 513.679V368.321Z"/>
<path d="M0.625488 548.193C0.625488 543.678 4.28531 540.019 8.79993 540.019H185.229C189.744 540.019 193.404 543.678 193.404 548.193V693.551C193.404 698.066 189.744 701.726 185.229 701.726H8.79994C4.28532 701.726 0.625488 698.066 0.625488 693.551V548.193Z"/>
<path d="M215.368 548.193C215.368 543.678 219.028 540.019 223.543 540.019H399.972C404.486 540.019 408.146 543.678 408.146 548.193V693.551C408.146 698.066 404.486 701.726 399.972 701.726H223.543C219.028 701.726 215.368 698.066 215.368 693.551V548.193Z"/>
<path d="M430.111 548.193C430.111 543.678 433.771 540.019 438.285 540.019H614.715C619.229 540.019 622.889 543.678 622.889 548.193V693.551C622.889 698.066 619.229 701.726 614.715 701.726H438.285C433.771 701.726 430.111 698.066 430.111 693.551V548.193Z"/>
<path d="M644.854 548.193C644.854 543.678 648.513 540.019 653.028 540.019H829.457C833.972 540.019 837.632 543.678 837.632 548.193V693.551C837.632 698.066 833.972 701.726 829.457 701.726H653.028C648.513 701.726 644.854 698.066 644.854 693.551V548.193Z"/>
<path d="M859.596 548.193C859.596 543.678 863.256 540.019 867.771 540.019H1044.2C1048.71 540.019 1052.37 543.678 1052.37 548.193V693.551C1052.37 698.066 1048.71 701.726 1044.2 701.726H867.771C863.256 701.726 859.596 698.066 859.596 693.551V548.193Z"/>
<path d="M0.625488 728.065C0.625488 723.551 4.28531 719.891 8.79993 719.891H185.229C189.744 719.891 193.404 723.551 193.404 728.065V873.424C193.404 877.938 189.744 881.598 185.229 881.598H8.79994C4.28532 881.598 0.625488 877.938 0.625488 873.424V728.065Z"/>
<path d="M215.368 728.065C215.368 723.551 219.028 719.891 223.543 719.891H399.972C404.486 719.891 408.146 723.551 408.146 728.065V873.424C408.146 877.938 404.486 881.598 399.972 881.598H223.543C219.028 881.598 215.368 877.938 215.368 873.424V728.065Z"/>
<path d="M430.111 728.065C430.111 723.551 433.771 719.891 438.285 719.891H614.715C619.229 719.891 622.889 723.551 622.889 728.065V873.424C622.889 877.938 619.229 881.598 614.715 881.598H438.285C433.771 881.598 430.111 877.938 430.111 873.424V728.065Z"/>
<path d="M644.854 728.065C644.854 723.551 648.513 719.891 653.028 719.891H829.457C833.972 719.891 837.632 723.551 837.632 728.065V873.424C837.632 877.938 833.972 881.598 829.457 881.598H653.028C648.513 881.598 644.854 877.938 644.854 873.424V728.065Z"/>
<path d="M859.596 728.065C859.596 723.551 863.256 719.891 867.771 719.891H1044.2C1048.71 719.891 1052.37 723.551 1052.37 728.065V873.424C1052.37 877.938 1048.71 881.598 1044.2 881.598H867.771C863.256 881.598 859.596 877.938 859.596 873.424V728.065Z"/>
</mask>
<path d="M0.625488 8.57679C0.625488 4.06217 4.28531 0.402344 8.79993 0.402344H185.229C189.744 0.402344 193.404 4.06217 193.404 8.57678V153.935C193.404 158.45 189.744 162.11 185.229 162.11H8.79994C4.28532 162.11 0.625488 158.45 0.625488 153.935V8.57679Z" stroke="url(#paint0_radial_5568_36428)" stroke-width="4" mask="url(#path-1-inside-1_5568_36428)"/>
<path d="M215.368 8.57679C215.368 4.06217 219.028 0.402344 223.543 0.402344H399.972C404.486 0.402344 408.146 4.06217 408.146 8.57678V153.935C408.146 158.45 404.486 162.11 399.972 162.11H223.543C219.028 162.11 215.368 158.45 215.368 153.935V8.57679Z" stroke="url(#paint1_radial_5568_36428)" stroke-width="4" mask="url(#path-1-inside-1_5568_36428)"/>
<path d="M430.111 8.57679C430.111 4.06217 433.771 0.402344 438.285 0.402344H614.715C619.229 0.402344 622.889 4.06217 622.889 8.57678V153.935C622.889 158.45 619.229 162.11 614.715 162.11H438.285C433.771 162.11 430.111 158.45 430.111 153.935V8.57679Z" stroke="url(#paint2_radial_5568_36428)" stroke-width="4" mask="url(#path-1-inside-1_5568_36428)"/>
<path d="M644.854 8.57679C644.854 4.06217 648.513 0.402344 653.028 0.402344H829.457C833.972 0.402344 837.632 4.06217 837.632 8.57678V153.935C837.632 158.45 833.972 162.11 829.457 162.11H653.028C648.513 162.11 644.854 158.45 644.854 153.935V8.57679Z" stroke="url(#paint3_radial_5568_36428)" stroke-width="4" mask="url(#path-1-inside-1_5568_36428)"/>
<path d="M859.596 8.57679C859.596 4.06217 863.256 0.402344 867.771 0.402344H1044.2C1048.71 0.402344 1052.37 4.06217 1052.37 8.57678V153.935C1052.37 158.45 1048.71 162.11 1044.2 162.11H867.771C863.256 162.11 859.596 158.45 859.596 153.935V8.57679Z" stroke="url(#paint4_radial_5568_36428)" stroke-width="4" mask="url(#path-1-inside-1_5568_36428)"/>
<path d="M0.625488 188.449C0.625488 183.934 4.28531 180.274 8.79993 180.274H185.229C189.744 180.274 193.404 183.934 193.404 188.449V333.807C193.404 338.322 189.744 341.982 185.229 341.982H8.79994C4.28532 341.982 0.625488 338.322 0.625488 333.807V188.449Z" stroke="url(#paint5_radial_5568_36428)" stroke-width="4" mask="url(#path-1-inside-1_5568_36428)"/>
<path d="M215.368 188.449C215.368 183.934 219.028 180.274 223.543 180.274H399.972C404.486 180.274 408.146 183.934 408.146 188.449V333.807C408.146 338.322 404.486 341.982 399.972 341.982H223.543C219.028 341.982 215.368 338.322 215.368 333.807V188.449Z" stroke="url(#paint6_radial_5568_36428)" stroke-width="4" mask="url(#path-1-inside-1_5568_36428)"/>
<path d="M430.111 188.449C430.111 183.934 433.771 180.274 438.285 180.274H614.715C619.229 180.274 622.889 183.934 622.889 188.449V333.807C622.889 338.322 619.229 341.982 614.715 341.982H438.285C433.771 341.982 430.111 338.322 430.111 333.807V188.449Z" stroke="url(#paint7_radial_5568_36428)" stroke-width="4" mask="url(#path-1-inside-1_5568_36428)"/>
<path d="M644.854 188.449C644.854 183.934 648.513 180.274 653.028 180.274H829.457C833.972 180.274 837.632 183.934 837.632 188.449V333.807C837.632 338.322 833.972 341.982 829.457 341.982H653.028C648.513 341.982 644.854 338.322 644.854 333.807V188.449Z" stroke="url(#paint8_radial_5568_36428)" stroke-width="4" mask="url(#path-1-inside-1_5568_36428)"/>
<path d="M859.596 188.449C859.596 183.934 863.256 180.274 867.771 180.274H1044.2C1048.71 180.274 1052.37 183.934 1052.37 188.449V333.807C1052.37 338.322 1048.71 341.982 1044.2 341.982H867.771C863.256 341.982 859.596 338.322 859.596 333.807V188.449Z" stroke="url(#paint9_radial_5568_36428)" stroke-width="4" mask="url(#path-1-inside-1_5568_36428)"/>
<path d="M0.625488 368.321C0.625488 363.806 4.28531 360.147 8.79993 360.147H185.229C189.744 360.147 193.404 363.806 193.404 368.321V513.679C193.404 518.194 189.744 521.854 185.229 521.854H8.79994C4.28532 521.854 0.625488 518.194 0.625488 513.679V368.321Z" stroke="url(#paint10_radial_5568_36428)" stroke-width="4" mask="url(#path-1-inside-1_5568_36428)"/>
<path d="M215.368 368.321C215.368 363.806 219.028 360.147 223.543 360.147H399.972C404.486 360.147 408.146 363.806 408.146 368.321V513.679C408.146 518.194 404.486 521.854 399.972 521.854H223.543C219.028 521.854 215.368 518.194 215.368 513.679V368.321Z" stroke="url(#paint11_radial_5568_36428)" stroke-width="4" mask="url(#path-1-inside-1_5568_36428)"/>
<path d="M430.111 368.321C430.111 363.806 433.771 360.147 438.285 360.147H614.715C619.229 360.147 622.889 363.806 622.889 368.321V513.679C622.889 518.194 619.229 521.854 614.715 521.854H438.285C433.771 521.854 430.111 518.194 430.111 513.679V368.321Z" stroke="url(#paint12_radial_5568_36428)" stroke-width="4" mask="url(#path-1-inside-1_5568_36428)"/>
<path d="M644.854 368.321C644.854 363.806 648.513 360.147 653.028 360.147H829.457C833.972 360.147 837.632 363.806 837.632 368.321V513.679C837.632 518.194 833.972 521.854 829.457 521.854H653.028C648.513 521.854 644.854 518.194 644.854 513.679V368.321Z" stroke="url(#paint13_radial_5568_36428)" stroke-width="4" mask="url(#path-1-inside-1_5568_36428)"/>
<path d="M859.596 368.321C859.596 363.806 863.256 360.147 867.771 360.147H1044.2C1048.71 360.147 1052.37 363.806 1052.37 368.321V513.679C1052.37 518.194 1048.71 521.854 1044.2 521.854H867.771C863.256 521.854 859.596 518.194 859.596 513.679V368.321Z" stroke="url(#paint14_radial_5568_36428)" stroke-width="4" mask="url(#path-1-inside-1_5568_36428)"/>
<path d="M0.625488 548.193C0.625488 543.678 4.28531 540.019 8.79993 540.019H185.229C189.744 540.019 193.404 543.678 193.404 548.193V693.551C193.404 698.066 189.744 701.726 185.229 701.726H8.79994C4.28532 701.726 0.625488 698.066 0.625488 693.551V548.193Z" stroke="url(#paint15_radial_5568_36428)" stroke-width="4" mask="url(#path-1-inside-1_5568_36428)"/>
<path d="M215.368 548.193C215.368 543.678 219.028 540.019 223.543 540.019H399.972C404.486 540.019 408.146 543.678 408.146 548.193V693.551C408.146 698.066 404.486 701.726 399.972 701.726H223.543C219.028 701.726 215.368 698.066 215.368 693.551V548.193Z" stroke="url(#paint16_radial_5568_36428)" stroke-width="4" mask="url(#path-1-inside-1_5568_36428)"/>
<path d="M430.111 548.193C430.111 543.678 433.771 540.019 438.285 540.019H614.715C619.229 540.019 622.889 543.678 622.889 548.193V693.551C622.889 698.066 619.229 701.726 614.715 701.726H438.285C433.771 701.726 430.111 698.066 430.111 693.551V548.193Z" stroke="url(#paint17_radial_5568_36428)" stroke-width="4" mask="url(#path-1-inside-1_5568_36428)"/>
<path d="M644.854 548.193C644.854 543.678 648.513 540.019 653.028 540.019H829.457C833.972 540.019 837.632 543.678 837.632 548.193V693.551C837.632 698.066 833.972 701.726 829.457 701.726H653.028C648.513 701.726 644.854 698.066 644.854 693.551V548.193Z" stroke="url(#paint18_radial_5568_36428)" stroke-width="4" mask="url(#path-1-inside-1_5568_36428)"/>
<path d="M859.596 548.193C859.596 543.678 863.256 540.019 867.771 540.019H1044.2C1048.71 540.019 1052.37 543.678 1052.37 548.193V693.551C1052.37 698.066 1048.71 701.726 1044.2 701.726H867.771C863.256 701.726 859.596 698.066 859.596 693.551V548.193Z" stroke="url(#paint19_radial_5568_36428)" stroke-width="4" mask="url(#path-1-inside-1_5568_36428)"/>
<path d="M0.625488 728.065C0.625488 723.551 4.28531 719.891 8.79993 719.891H185.229C189.744 719.891 193.404 723.551 193.404 728.065V873.424C193.404 877.938 189.744 881.598 185.229 881.598H8.79994C4.28532 881.598 0.625488 877.938 0.625488 873.424V728.065Z" stroke="url(#paint20_radial_5568_36428)" stroke-width="4" mask="url(#path-1-inside-1_5568_36428)"/>
<path d="M215.368 728.065C215.368 723.551 219.028 719.891 223.543 719.891H399.972C404.486 719.891 408.146 723.551 408.146 728.065V873.424C408.146 877.938 404.486 881.598 399.972 881.598H223.543C219.028 881.598 215.368 877.938 215.368 873.424V728.065Z" stroke="url(#paint21_radial_5568_36428)" stroke-width="4" mask="url(#path-1-inside-1_5568_36428)"/>
<path d="M430.111 728.065C430.111 723.551 433.771 719.891 438.285 719.891H614.715C619.229 719.891 622.889 723.551 622.889 728.065V873.424C622.889 877.938 619.229 881.598 614.715 881.598H438.285C433.771 881.598 430.111 877.938 430.111 873.424V728.065Z" stroke="url(#paint22_radial_5568_36428)" stroke-width="4" mask="url(#path-1-inside-1_5568_36428)"/>
<path d="M644.854 728.065C644.854 723.551 648.513 719.891 653.028 719.891H829.457C833.972 719.891 837.632 723.551 837.632 728.065V873.424C837.632 877.938 833.972 881.598 829.457 881.598H653.028C648.513 881.598 644.854 877.938 644.854 873.424V728.065Z" stroke="url(#paint23_radial_5568_36428)" stroke-width="4" mask="url(#path-1-inside-1_5568_36428)"/>
<path d="M859.596 728.065C859.596 723.551 863.256 719.891 867.771 719.891H1044.2C1048.71 719.891 1052.37 723.551 1052.37 728.065V873.424C1052.37 877.938 1048.71 881.598 1044.2 881.598H867.771C863.256 881.598 859.596 877.938 859.596 873.424V728.065Z" stroke="url(#paint24_radial_5568_36428)" stroke-width="4" mask="url(#path-1-inside-1_5568_36428)"/>
<defs>
<radialGradient id="paint0_radial_5568_36428" cx="0" cy="0" r="1" gradientUnits="userSpaceOnUse" gradientTransform="translate(526.5 441) rotate(90) scale(610.831 729.056)">
<stop offset="0.434777" stop-color="#DCDCDC"/>
<stop offset="0.975859" stop-color="#D9D9D9" stop-opacity="0"/>
</radialGradient>
<radialGradient id="paint1_radial_5568_36428" cx="0" cy="0" r="1" gradientUnits="userSpaceOnUse" gradientTransform="translate(526.5 441) rotate(90) scale(610.831 729.056)">
<stop offset="0.434777" stop-color="#DCDCDC"/>
<stop offset="0.975859" stop-color="#D9D9D9" stop-opacity="0"/>
</radialGradient>
<radialGradient id="paint2_radial_5568_36428" cx="0" cy="0" r="1" gradientUnits="userSpaceOnUse" gradientTransform="translate(526.5 441) rotate(90) scale(610.831 729.056)">
<stop offset="0.434777" stop-color="#DCDCDC"/>
<stop offset="0.975859" stop-color="#D9D9D9" stop-opacity="0"/>
</radialGradient>
<radialGradient id="paint3_radial_5568_36428" cx="0" cy="0" r="1" gradientUnits="userSpaceOnUse" gradientTransform="translate(526.5 441) rotate(90) scale(610.831 729.056)">
<stop offset="0.434777" stop-color="#DCDCDC"/>
<stop offset="0.975859" stop-color="#D9D9D9" stop-opacity="0"/>
</radialGradient>
<radialGradient id="paint4_radial_5568_36428" cx="0" cy="0" r="1" gradientUnits="userSpaceOnUse" gradientTransform="translate(526.5 441) rotate(90) scale(610.831 729.056)">
<stop offset="0.434777" stop-color="#DCDCDC"/>
<stop offset="0.975859" stop-color="#D9D9D9" stop-opacity="0"/>
</radialGradient>
<radialGradient id="paint5_radial_5568_36428" cx="0" cy="0" r="1" gradientUnits="userSpaceOnUse" gradientTransform="translate(526.5 441) rotate(90) scale(610.831 729.056)">
<stop offset="0.434777" stop-color="#DCDCDC"/>
<stop offset="0.975859" stop-color="#D9D9D9" stop-opacity="0"/>
</radialGradient>
<radialGradient id="paint6_radial_5568_36428" cx="0" cy="0" r="1" gradientUnits="userSpaceOnUse" gradientTransform="translate(526.5 441) rotate(90) scale(610.831 729.056)">
<stop offset="0.434777" stop-color="#DCDCDC"/>
<stop offset="0.975859" stop-color="#D9D9D9" stop-opacity="0"/>
</radialGradient>
<radialGradient id="paint7_radial_5568_36428" cx="0" cy="0" r="1" gradientUnits="userSpaceOnUse" gradientTransform="translate(526.5 441) rotate(90) scale(610.831 729.056)">
<stop offset="0.434777" stop-color="#DCDCDC"/>
<stop offset="0.975859" stop-color="#D9D9D9" stop-opacity="0"/>
</radialGradient>
<radialGradient id="paint8_radial_5568_36428" cx="0" cy="0" r="1" gradientUnits="userSpaceOnUse" gradientTransform="translate(526.5 441) rotate(90) scale(610.831 729.056)">
<stop offset="0.434777" stop-color="#DCDCDC"/>
<stop offset="0.975859" stop-color="#D9D9D9" stop-opacity="0"/>
</radialGradient>
<radialGradient id="paint9_radial_5568_36428" cx="0" cy="0" r="1" gradientUnits="userSpaceOnUse" gradientTransform="translate(526.5 441) rotate(90) scale(610.831 729.056)">
<stop offset="0.434777" stop-color="#DCDCDC"/>
<stop offset="0.975859" stop-color="#D9D9D9" stop-opacity="0"/>
</radialGradient>
<radialGradient id="paint10_radial_5568_36428" cx="0" cy="0" r="1" gradientUnits="userSpaceOnUse" gradientTransform="translate(526.5 441) rotate(90) scale(610.831 729.056)">
<stop offset="0.434777" stop-color="#DCDCDC"/>
<stop offset="0.975859" stop-color="#D9D9D9" stop-opacity="0"/>
</radialGradient>
<radialGradient id="paint11_radial_5568_36428" cx="0" cy="0" r="1" gradientUnits="userSpaceOnUse" gradientTransform="translate(526.5 441) rotate(90) scale(610.831 729.056)">
<stop offset="0.434777" stop-color="#DCDCDC"/>
<stop offset="0.975859" stop-color="#D9D9D9" stop-opacity="0"/>
</radialGradient>
<radialGradient id="paint12_radial_5568_36428" cx="0" cy="0" r="1" gradientUnits="userSpaceOnUse" gradientTransform="translate(526.5 441) rotate(90) scale(610.831 729.056)">
<stop offset="0.434777" stop-color="#DCDCDC"/>
<stop offset="0.975859" stop-color="#D9D9D9" stop-opacity="0"/>
</radialGradient>
<radialGradient id="paint13_radial_5568_36428" cx="0" cy="0" r="1" gradientUnits="userSpaceOnUse" gradientTransform="translate(526.5 441) rotate(90) scale(610.831 729.056)">
<stop offset="0.434777" stop-color="#DCDCDC"/>
<stop offset="0.975859" stop-color="#D9D9D9" stop-opacity="0"/>
</radialGradient>
<radialGradient id="paint14_radial_5568_36428" cx="0" cy="0" r="1" gradientUnits="userSpaceOnUse" gradientTransform="translate(526.5 441) rotate(90) scale(610.831 729.056)">
<stop offset="0.434777" stop-color="#DCDCDC"/>
<stop offset="0.975859" stop-color="#D9D9D9" stop-opacity="0"/>
</radialGradient>
<radialGradient id="paint15_radial_5568_36428" cx="0" cy="0" r="1" gradientUnits="userSpaceOnUse" gradientTransform="translate(526.5 441) rotate(90) scale(610.831 729.056)">
<stop offset="0.434777" stop-color="#DCDCDC"/>
<stop offset="0.975859" stop-color="#D9D9D9" stop-opacity="0"/>
</radialGradient>
<radialGradient id="paint16_radial_5568_36428" cx="0" cy="0" r="1" gradientUnits="userSpaceOnUse" gradientTransform="translate(526.5 441) rotate(90) scale(610.831 729.056)">
<stop offset="0.434777" stop-color="#DCDCDC"/>
<stop offset="0.975859" stop-color="#D9D9D9" stop-opacity="0"/>
</radialGradient>
<radialGradient id="paint17_radial_5568_36428" cx="0" cy="0" r="1" gradientUnits="userSpaceOnUse" gradientTransform="translate(526.5 441) rotate(90) scale(610.831 729.056)">
<stop offset="0.434777" stop-color="#DCDCDC"/>
<stop offset="0.975859" stop-color="#D9D9D9" stop-opacity="0"/>
</radialGradient>
<radialGradient id="paint18_radial_5568_36428" cx="0" cy="0" r="1" gradientUnits="userSpaceOnUse" gradientTransform="translate(526.5 441) rotate(90) scale(610.831 729.056)">
<stop offset="0.434777" stop-color="#DCDCDC"/>
<stop offset="0.975859" stop-color="#D9D9D9" stop-opacity="0"/>
</radialGradient>
<radialGradient id="paint19_radial_5568_36428" cx="0" cy="0" r="1" gradientUnits="userSpaceOnUse" gradientTransform="translate(526.5 441) rotate(90) scale(610.831 729.056)">
<stop offset="0.434777" stop-color="#DCDCDC"/>
<stop offset="0.975859" stop-color="#D9D9D9" stop-opacity="0"/>
</radialGradient>
<radialGradient id="paint20_radial_5568_36428" cx="0" cy="0" r="1" gradientUnits="userSpaceOnUse" gradientTransform="translate(526.5 441) rotate(90) scale(610.831 729.056)">
<stop offset="0.434777" stop-color="#DCDCDC"/>
<stop offset="0.975859" stop-color="#D9D9D9" stop-opacity="0"/>
</radialGradient>
<radialGradient id="paint21_radial_5568_36428" cx="0" cy="0" r="1" gradientUnits="userSpaceOnUse" gradientTransform="translate(526.5 441) rotate(90) scale(610.831 729.056)">
<stop offset="0.434777" stop-color="#DCDCDC"/>
<stop offset="0.975859" stop-color="#D9D9D9" stop-opacity="0"/>
</radialGradient>
<radialGradient id="paint22_radial_5568_36428" cx="0" cy="0" r="1" gradientUnits="userSpaceOnUse" gradientTransform="translate(526.5 441) rotate(90) scale(610.831 729.056)">
<stop offset="0.434777" stop-color="#DCDCDC"/>
<stop offset="0.975859" stop-color="#D9D9D9" stop-opacity="0"/>
</radialGradient>
<radialGradient id="paint23_radial_5568_36428" cx="0" cy="0" r="1" gradientUnits="userSpaceOnUse" gradientTransform="translate(526.5 441) rotate(90) scale(610.831 729.056)">
<stop offset="0.434777" stop-color="#DCDCDC"/>
<stop offset="0.975859" stop-color="#D9D9D9" stop-opacity="0"/>
</radialGradient>
<radialGradient id="paint24_radial_5568_36428" cx="0" cy="0" r="1" gradientUnits="userSpaceOnUse" gradientTransform="translate(526.5 441) rotate(90) scale(610.831 729.056)">
<stop offset="0.434777" stop-color="#DCDCDC"/>
<stop offset="0.975859" stop-color="#D9D9D9" stop-opacity="0"/>
</radialGradient>
</defs>
</svg>
