<svg width="57" height="57" viewBox="0 0 57 57" fill="none" xmlns="http://www.w3.org/2000/svg">
<path d="M21.4372 7.08398H26.9165V23.0524L28.3372 24.4567L29.7579 23.0524V7.08398H35.2357L28.3372 0.18396L21.4372 7.08398Z" fill="#D9D9D9"/>
<path d="M25.5705 21.7215V8.42989H20.0912L16.1312 12.3898L25.5705 21.7215Z" fill="#D9D9D9"/>
<path d="M48.3015 25.6276V20.1483L44.34 16.1883L35.0084 25.6276H48.3015Z" fill="#D9D9D9"/>
<path d="M56.546 28.3942L49.6475 21.4942V26.9735H33.6791L32.2733 28.3942L33.6791 29.8149H49.6475V35.2927L56.546 28.3942Z" fill="#D9D9D9"/>
<path d="M8.37297 18.2445L12.3374 14.2786L23.5563 25.6276H25.5707V23.6132L14.2217 12.3943L18.1876 8.42989H8.37297V18.2445Z" fill="#D9D9D9"/>
<path d="M48.3016 8.42989H38.4854L42.4514 12.3943L31.1039 23.6132V25.6276H33.1167L44.3356 14.2786L48.3016 18.2445V8.42989Z" fill="#D9D9D9"/>
<path d="M24.3997 28.3942L22.9954 26.9735H7.02697V21.4942L0.126953 28.3942L7.02697 35.2927V29.8149H22.9954L24.3997 28.3942Z" fill="#D9D9D9"/>
<path d="M31.1039 8.42989V21.7215L40.5417 12.3898L36.5817 8.42989H31.1039Z" fill="#D9D9D9"/>
<path d="M8.37297 25.6276H21.6646L12.3329 16.1883L8.37297 20.1483V25.6276Z" fill="#D9D9D9"/>
<path d="M48.3016 38.5423L44.3356 42.5083L33.1167 31.1608H31.1039V33.1737L42.4514 44.3925L38.4854 48.3585H48.3016V38.5423Z" fill="#D9D9D9"/>
<path d="M35.2357 49.7044H29.7579V33.7359L28.3372 32.3302L26.9165 33.7359V49.7044H21.4372L28.3372 56.6029L35.2357 49.7044Z" fill="#D9D9D9"/>
<path d="M48.3015 31.1608H35.0084L44.34 40.5986L48.3015 36.6386V31.1608Z" fill="#D9D9D9"/>
<path d="M31.1039 35.0654V48.3585H36.5817L40.5417 44.397L31.1039 35.0654Z" fill="#D9D9D9"/>
<path d="M12.3329 40.5986L21.6646 31.1608H8.37297V36.6386L12.3329 40.5986Z" fill="#D9D9D9"/>
<path d="M14.2217 44.3925L25.5707 33.1737V31.1608H23.5563L12.3374 42.5083L8.37297 38.5423V48.3585H18.1876L14.2217 44.3925Z" fill="#D9D9D9"/>
<path d="M25.5705 48.3585V35.0654L16.1312 44.397L20.0912 48.3585H25.5705Z" fill="#D9D9D9"/>
</svg>
