<svg width="24" height="18" viewBox="0 0 24 18" fill="none" xmlns="http://www.w3.org/2000/svg">
<path opacity="0.2" fill-rule="evenodd" clip-rule="evenodd" d="M15.3018 1.55634C14.5794 2.06346 13.9898 2.73722 13.583 3.52054C13.1762 4.30386 12.9642 5.17368 12.9648 6.05634C12.9648 7.38634 13.4368 8.60634 14.2218 9.55634H3.96484C3.69963 9.55634 3.44527 9.66169 3.25774 9.84923C3.0702 10.0368 2.96484 10.2911 2.96484 10.5563V11.5563C2.96484 11.8216 3.0702 12.0759 3.25774 12.2634C3.44527 12.451 3.69963 12.5563 3.96484 12.5563H19.9648C20.2301 12.5563 20.4844 12.451 20.672 12.2634C20.8595 12.0759 20.9648 11.8216 20.9648 11.5563V10.9563C21.7625 10.5481 22.4489 9.95193 22.9648 9.21934V15.5563C22.9648 16.0868 22.7541 16.5955 22.3791 16.9705C22.004 17.3456 21.4953 17.5563 20.9648 17.5563H2.96484C2.43441 17.5563 1.9257 17.3456 1.55063 16.9705C1.17556 16.5955 0.964844 16.0868 0.964844 15.5563V3.55634C0.964844 3.0259 1.17556 2.51719 1.55063 2.14212C1.9257 1.76705 2.43441 1.55634 2.96484 1.55634H15.3018ZM22.0088 1.84934C22.2478 2.05134 22.4688 2.27334 22.6708 2.51234C22.5055 2.24227 22.2787 2.0151 22.0088 1.84934Z" fill="#77787D"/>
<path opacity="0.4" fill-rule="evenodd" clip-rule="evenodd" d="M13.5648 3.55634C13.0915 4.48127 12.8911 5.52175 12.9868 6.55634H0.964844V3.55634H13.5648Z" fill="#77787D"/>
<path fill-rule="evenodd" clip-rule="evenodd" d="M18.4648 11.5563C17.0062 11.5563 15.6072 10.9769 14.5758 9.94542C13.5443 8.91397 12.9648 7.51503 12.9648 6.05634C12.9648 4.59764 13.5443 3.1987 14.5758 2.16725C15.6072 1.1358 17.0062 0.556335 18.4648 0.556335C19.9235 0.556335 21.3225 1.1358 22.3539 2.16725C23.3854 3.1987 23.9648 4.59764 23.9648 6.05634C23.9648 7.51503 23.3854 8.91397 22.3539 9.94542C21.3225 10.9769 19.9235 11.5563 18.4648 11.5563ZM16.2808 3.77734H15.6598L14.1438 4.54734V5.33334L15.3458 4.70534V8.33534H16.2888V3.77634H16.2808V3.77734ZM18.0878 4.40634C18.5358 4.40634 18.8498 4.65734 18.8498 5.01934C18.8498 5.41234 18.4798 5.68734 17.9458 5.68734H17.7108V6.35534H17.9938C18.5588 6.35534 18.9438 6.63734 18.9438 7.04634C18.9438 7.43934 18.5668 7.70634 18.0328 7.70634C17.6398 7.70634 17.2468 7.58034 16.8388 7.33634V8.12234C17.2788 8.31134 17.7188 8.41334 18.1508 8.41334C19.1798 8.41334 19.8868 7.88734 19.8868 7.12534C19.8868 6.59034 19.5568 6.15834 19.0068 5.98534C19.4788 5.82834 19.7848 5.41234 19.7848 4.94034C19.7848 4.20234 19.1328 3.69934 18.1898 3.69934C17.7647 3.70395 17.3449 3.79478 16.9558 3.96634V4.73634C17.3338 4.52434 17.7188 4.40634 18.0878 4.40634ZM21.4818 6.11934C22.0558 6.11934 22.4558 6.45733 22.4558 6.89734C22.4558 7.36033 22.0558 7.68234 21.4818 7.68234C21.1358 7.68234 20.7748 7.57234 20.4058 7.34534V8.15434C20.7908 8.32733 21.1838 8.41434 21.5688 8.41434C21.7728 8.41434 21.9608 8.38234 22.1418 8.33434C22.5619 7.65455 22.7849 6.87144 22.7858 6.07234L22.7708 5.74234C22.4786 5.56911 22.1435 5.48177 21.8038 5.49034C21.6539 5.48979 21.5042 5.50049 21.3558 5.52234V4.50034H22.4878C22.3895 4.24879 22.2683 4.00678 22.1258 3.77734H20.5388V6.25234C20.8466 6.16965 21.1633 6.12498 21.4818 6.11934Z" fill="#77787D"/>
</svg>
