<svg width="71" height="71" viewBox="0 0 71 71" fill="none" xmlns="http://www.w3.org/2000/svg">
<path d="M39.9285 36.98C39.0006 36.9929 40.1041 37.4581 41.3155 37.6446C41.6501 37.3833 41.9537 37.1189 42.2243 36.8617C41.4699 37.0466 40.702 37.0507 39.9285 36.98Z" fill="#D9D9D9"/>
<path d="M44.9089 35.7386C45.4614 34.9759 45.8642 34.141 46.0062 33.2776C45.8823 33.8931 45.5482 34.4245 45.2337 34.9852C43.4992 36.0774 45.0705 34.3367 45.2327 33.6752C43.3675 36.0226 44.9765 35.0828 44.9089 35.7386Z" fill="#D9D9D9"/>
<path d="M46.7472 30.955C46.8592 29.284 46.4183 29.8122 46.2701 30.4499C46.443 30.5398 46.5799 31.6278 46.7472 30.955Z" fill="#D9D9D9"/>
<path d="M36.4099 8.11584C36.9051 8.20465 37.4799 8.27281 37.3993 8.39106C37.941 8.2723 38.0639 8.16283 36.4099 8.11584Z" fill="#D9D9D9"/>
<path d="M37.3993 8.39106L37.0492 8.46335L37.375 8.43444L37.3993 8.39106Z" fill="#D9D9D9"/>
<path d="M52.8409 31.5885C52.8961 33.0891 52.402 33.8172 51.9563 35.1061L51.1544 35.5068C50.4981 36.7812 51.2179 36.3159 50.748 37.3296C49.7236 38.2404 47.639 40.1799 46.9718 40.3571C46.4849 40.3462 47.3018 39.7823 47.4087 39.5613C46.0372 40.5032 46.3083 40.9752 44.2108 41.5473L44.1493 41.411C38.9763 43.8446 31.7905 39.0217 31.885 32.4411C31.8297 32.8588 31.728 32.7545 31.6134 32.9234C31.3464 29.5375 33.1769 26.1367 36.2643 24.7482C39.2841 23.2533 42.8243 23.8667 44.9874 25.8826C43.7992 24.3263 41.4342 22.6765 38.6314 22.8309C35.8858 22.8743 33.3174 24.6191 32.4602 26.5131C31.0536 27.3987 30.8904 29.9269 30.2775 30.3895C29.4529 36.4502 31.8287 39.0687 35.8476 42.1489C36.4802 42.5754 36.0258 42.6399 36.1115 42.9647C34.7761 42.3394 33.5534 41.3955 32.548 40.2398C33.0814 41.0206 33.6572 41.7797 34.4013 42.3761C33.1423 41.9496 31.4605 39.3253 30.9694 39.2185C33.1398 43.1042 39.7746 46.033 43.2488 44.5799C41.6413 44.6393 39.5991 44.613 37.7928 43.9453C37.0342 43.555 36.0025 42.7463 36.1869 42.595C40.9282 44.3662 45.826 43.9366 49.9285 40.6478C50.9721 39.835 52.1123 38.4522 52.4417 38.4331C51.9455 39.1792 52.5264 38.7919 52.1453 39.4508C53.1853 37.7737 51.6935 38.7682 53.2204 36.5545L53.7843 37.3311C53.5746 35.939 55.5131 34.2484 55.3164 32.0466C55.761 31.3732 55.8126 32.771 55.3406 34.3202C55.9954 32.6017 55.5131 32.3254 55.6814 30.9075C55.8632 31.3841 56.1018 31.8906 56.2242 32.3936C55.7976 30.7329 56.662 29.5969 56.8758 28.6318C56.6651 28.5383 56.2174 29.3661 56.1152 27.4044C56.1302 26.5524 56.3522 26.9577 56.4379 26.7481C56.2706 26.652 55.8317 25.9988 55.5647 24.7461C55.7584 24.4518 56.0822 25.5093 56.3455 25.5527C56.1761 24.5566 55.8844 23.797 55.8725 23.0328C55.1031 21.4248 55.6004 23.2471 54.9761 22.3424C54.1571 19.7879 55.6556 21.7496 55.7568 20.5888C56.9982 22.3873 57.7061 25.1747 58.0309 26.3293C57.7831 24.9217 57.3824 23.5579 56.8934 22.2386C57.2703 22.3971 56.2861 19.3423 57.3834 21.3654C56.2112 17.0527 52.3669 13.0229 48.8302 11.132C49.2629 11.528 49.8093 12.0253 49.613 12.1033C47.8543 11.0561 48.1636 10.9745 47.9116 10.5319C46.4787 9.94896 46.3847 10.5789 45.4356 10.533C42.735 9.10056 42.2145 9.25289 39.7292 8.35543L39.8423 8.88368C38.053 8.28779 37.7577 9.10985 35.8239 8.88575C35.7061 8.79383 36.4435 8.5532 37.0502 8.4649C35.3204 8.69314 35.4015 8.1241 33.7088 8.5279C34.126 8.23512 34.567 8.04148 35.0121 7.79259C33.6014 7.87831 31.6443 8.61362 32.2485 7.94492C29.9475 8.97146 25.861 10.4127 23.5678 12.5628L23.4955 12.0811C22.4447 13.3426 18.9132 15.8485 18.6318 17.4823L18.3509 17.5479C17.804 18.4737 17.4503 19.523 17.0166 20.4757C16.3014 21.6943 15.9683 20.9446 16.0701 21.1356C14.6635 23.9876 13.9648 26.384 13.3612 28.3493C13.7913 28.9922 13.3715 32.2196 13.5342 34.8024C12.8278 47.5589 22.487 59.9446 33.0453 62.8043C34.5928 63.3578 36.8943 63.3366 38.8519 63.3934C36.5421 62.733 36.2437 63.0433 33.9938 62.259C32.3709 61.4947 32.0151 60.6221 30.8657 59.6244L31.3206 60.4284C29.0661 59.6306 30.0095 59.4411 28.1754 58.8602L28.6613 58.2256C27.9306 58.1703 26.7259 56.994 26.3965 56.3429L25.5971 56.3744C24.6367 55.1893 24.1249 54.3352 24.1621 53.6738L23.9039 54.1339C23.6111 53.6314 20.3704 49.6894 22.0517 50.607C21.7393 50.3215 21.3241 50.1423 20.8739 49.3244L21.2162 48.933C20.4071 47.892 19.727 46.5577 19.7786 46.1131C20.2103 46.696 20.5098 46.805 20.8062 46.9047C18.7629 41.8349 18.6483 46.6253 17.1007 41.744L17.4281 41.7177C17.1772 41.3397 17.0248 40.9292 16.8229 40.5264L16.9654 39.1064C15.4943 37.4055 16.5539 31.8741 16.7661 28.8404C16.9133 27.6068 17.9941 26.2937 18.8161 24.2344L18.3152 24.1481C19.2726 22.4782 23.7815 17.4415 25.8698 17.7007C26.8813 16.4299 25.6689 17.6961 25.4711 17.3759C27.6931 15.0765 28.3917 15.7514 29.8913 15.3378C31.5085 14.3779 28.5033 15.7122 29.2701 14.9717C32.0657 14.2576 31.2514 13.3482 34.8985 12.9857C35.2832 13.2047 34.0057 13.324 33.685 13.608C36.0144 12.4683 41.0563 12.7276 44.3311 14.2405C48.1311 16.0163 52.4004 21.2658 52.5688 26.2049L52.7603 26.2565C52.6633 28.2197 53.0609 30.4902 52.372 32.5759L52.8409 31.5885Z" fill="#D9D9D9"/>
<path d="M29.8004 38.2539L29.6703 38.9045C30.2801 39.7328 30.7639 40.6302 31.5426 41.2778C30.9824 40.1841 30.5662 39.7323 29.8004 38.2539Z" fill="#D9D9D9"/>
<path d="M31.2421 38.1971C30.9194 37.8403 30.7283 37.4106 30.5145 36.9826C30.719 37.7349 31.1378 38.3814 31.5276 39.0388L31.2421 38.1971Z" fill="#D9D9D9"/>
<path d="M56.7529 32.6523L56.6166 32.9941C56.3667 34.7694 55.8271 36.5261 54.9998 38.1547C55.9138 36.4362 56.5051 34.5567 56.7529 32.6523Z" fill="#D9D9D9"/>
<path d="M36.5932 7.67072C37.2206 7.44094 38.1357 7.54473 38.8013 7.39343C37.9338 7.46624 37.0704 7.50962 36.2178 7.6196L36.5932 7.67072Z" fill="#D9D9D9"/>
<path d="M14.5674 19.3831C14.712 20.7215 13.5605 21.241 14.8225 20.3585C15.4989 18.8347 14.5581 19.9377 14.5674 19.3831Z" fill="#D9D9D9"/>
<path d="M13.0844 25.5775C13.3751 24.6852 13.4278 24.1492 13.5388 23.6328C12.7353 24.6599 13.1691 24.8788 13.0844 25.5775Z" fill="#D9D9D9"/>
</svg>
