<svg width="72" height="73" viewBox="0 0 72 73" fill="none" xmlns="http://www.w3.org/2000/svg">
<path d="M27.0998 35.7677C27.0998 31.4417 29.1307 27.5906 32.2847 25.1112L27.4572 17.3844C23.4114 20.2901 20.3671 24.4958 18.9308 29.3915C21.1792 30.8386 22.6703 33.3672 22.6703 36.2411C22.6703 39.0131 21.2922 41.4569 19.1767 42.9279C20.7208 47.5652 23.73 51.535 27.6553 54.29L32.1449 46.3049C29.0687 43.8264 27.0998 40.0267 27.0998 35.7677Z" fill="#D9D9D9"/>
<path d="M20.3876 36.241C20.3876 39.4737 17.7623 42.0963 14.5304 42.0963C11.2969 42.0963 8.67346 39.4738 8.67346 36.241C8.67346 33.0098 11.2969 30.3874 14.5304 30.3874C17.7623 30.3874 20.3876 33.0098 20.3876 36.241Z" fill="#D9D9D9"/>
<path d="M53.2756 50.4001C54.6378 50.4001 55.9201 50.7334 57.047 51.325C60.5567 47.6261 62.8245 42.7455 63.1996 37.3395L54.1033 37.1635C53.403 43.9856 47.6395 49.3005 40.6343 49.3005C38.6954 49.3005 36.8451 48.8926 35.1752 48.155L30.6536 56.0659C33.6679 57.5492 37.0518 58.3824 40.6342 58.3824C42.1802 58.3824 43.6964 58.2259 45.1574 57.9278C45.469 53.7204 48.984 50.4001 53.2756 50.4001Z" fill="#D9D9D9"/>
<path d="M59.1306 58.5399C59.1306 61.772 56.5107 64.3934 53.2769 64.3934C50.0432 64.3934 47.4214 61.772 47.4214 58.5399C47.4214 55.3054 50.0432 52.6846 53.2769 52.6846C56.5107 52.6846 59.1306 55.3054 59.1306 58.5399Z" fill="#D9D9D9"/>
<path d="M57.6709 20.8949C56.3456 21.8334 54.7237 22.3888 52.9724 22.3888C48.4739 22.3888 44.8315 18.7454 44.8315 14.2496C44.8315 14.0109 44.8422 13.7799 44.8599 13.5481C43.4923 13.2863 42.079 13.1519 40.6355 13.1519C37.0197 13.1519 33.6003 14.0029 30.5699 15.51L35.065 23.4261C36.765 22.6603 38.6506 22.2294 40.6355 22.2294C47.5786 22.2294 53.3014 27.4585 54.0834 34.1932L63.1795 33.9155C62.7778 28.9492 60.7665 24.4381 57.6709 20.8949Z" fill="#D9D9D9"/>
<path d="M58.824 14.2498C58.824 17.4834 56.2093 20.1051 52.9722 20.1051C49.7387 20.1051 47.1169 17.4834 47.1169 14.2498C47.1167 11.0159 49.7385 8.39343 52.9721 8.39343C56.2092 8.39343 58.824 11.0159 58.824 14.2498Z" fill="#D9D9D9"/>
</svg>
